<?xml version="1.0" encoding="utf-8" standalone="no"?>
<!DOCTYPE svg PUBLIC "-//W3C//DTD SVG 1.1//EN"
  "http://www.w3.org/Graphics/SVG/1.1/DTD/svg11.dtd">
<svg xmlns:xlink="http://www.w3.org/1999/xlink" width="518.4pt" height="432pt" viewBox="0 0 518.4 432" xmlns="http://www.w3.org/2000/svg" version="1.1">
 <metadata>
  <rdf:RDF xmlns:dc="http://purl.org/dc/elements/1.1/" xmlns:cc="http://creativecommons.org/ns#" xmlns:rdf="http://www.w3.org/1999/02/22-rdf-syntax-ns#">
   <cc:Work>
    <dc:type rdf:resource="http://purl.org/dc/dcmitype/StillImage"/>
    <dc:date>2024-03-20T17:55:28.494244</dc:date>
    <dc:format>image/svg+xml</dc:format>
    <dc:creator>
     <cc:Agent>
      <dc:title>Matplotlib v3.6.2, https://matplotlib.org/</dc:title>
     </cc:Agent>
    </dc:creator>
   </cc:Work>
  </rdf:RDF>
 </metadata>
 <defs>
  <style type="text/css">*{stroke-linejoin: round; stroke-linecap: butt}</style>
 </defs>
 <g id="figure_1">
  <g id="patch_1">
   <path d="M 0 432 
L 518.4 432 
L 518.4 0 
L 0 0 
L 0 432 
z
" style="fill: none"/>
  </g>
  <g id="axes_1">
   <g id="patch_2">
    <path d="M 64.8 378 
L 466.56 378 
L 466.56 51.84 
L 64.8 51.84 
z
" style="fill: #ffffff"/>
   </g>
   <g id="PathCollection_1">
    <defs>
     <path id="C0_0_bba2b1fcaf" d="M 0 4.5 
C 1.193414 4.5 2.338109 4.025852 3.181981 3.181981 
C 4.025852 2.338109 4.5 1.193414 4.5 -0 
C 4.5 -1.193414 4.025852 -2.338109 3.181981 -3.181981 
C 2.338109 -4.025852 1.193414 -4.5 0 -4.5 
C -1.193414 -4.5 -2.338109 -4.025852 -3.181981 -3.181981 
C -4.025852 -2.338109 -4.5 -1.193414 -4.5 0 
C -4.5 1.193414 -4.025852 2.338109 -3.181981 3.181981 
C -2.338109 4.025852 -1.193414 4.5 0 4.5 
z
"/>
    </defs>
    <g clip-path="url(#p8ecc6e75f3)">
     <use xlink:href="#C0_0_bba2b1fcaf" x="266.913984" y="171.752952" style="fill: #19a8e6; stroke: #19a8e6"/>
    </g>
    <g clip-path="url(#p8ecc6e75f3)">
     <use xlink:href="#C0_0_bba2b1fcaf" x="406.102876" y="160.794667" style="fill: #19a8e6; stroke: #19a8e6"/>
    </g>
    <g clip-path="url(#p8ecc6e75f3)">
     <use xlink:href="#C0_0_bba2b1fcaf" x="284.368133" y="232.334841" style="fill: #19a8e6; stroke: #19a8e6"/>
    </g>
    <g clip-path="url(#p8ecc6e75f3)">
     <use xlink:href="#C0_0_bba2b1fcaf" x="225.24715" y="296.356053" style="fill: #e65719; stroke: #e65719"/>
    </g>
    <g clip-path="url(#p8ecc6e75f3)">
     <use xlink:href="#C0_0_bba2b1fcaf" x="163.19444" y="203.751578" style="fill: #e65719; stroke: #e65719"/>
    </g>
    <g clip-path="url(#p8ecc6e75f3)">
     <use xlink:href="#C0_0_bba2b1fcaf" x="181.54043" y="239.421965" style="fill: #e65719; stroke: #e65719"/>
    </g>
    <g clip-path="url(#p8ecc6e75f3)">
     <use xlink:href="#C0_0_bba2b1fcaf" x="149.541157" y="232.5056" style="fill: #e65719; stroke: #e65719"/>
    </g>
    <g clip-path="url(#p8ecc6e75f3)">
     <use xlink:href="#C0_0_bba2b1fcaf" x="383.057692" y="186.887554" style="fill: #19a8e6; stroke: #19a8e6"/>
    </g>
    <g clip-path="url(#p8ecc6e75f3)">
     <use xlink:href="#C0_0_bba2b1fcaf" x="131.697841" y="283.129295" style="fill: #e65719; stroke: #e65719"/>
    </g>
    <g clip-path="url(#p8ecc6e75f3)">
     <use xlink:href="#C0_0_bba2b1fcaf" x="110.67957" y="222.202976" style="fill: #e65719; stroke: #e65719"/>
    </g>
    <g clip-path="url(#p8ecc6e75f3)">
     <use xlink:href="#C0_0_bba2b1fcaf" x="225.224448" y="246.675623" style="fill: #e65719; stroke: #e65719"/>
    </g>
    <g clip-path="url(#p8ecc6e75f3)">
     <use xlink:href="#C0_0_bba2b1fcaf" x="303.258958" y="261.985815" style="fill: #19a8e6; stroke: #19a8e6"/>
    </g>
    <g clip-path="url(#p8ecc6e75f3)">
     <use xlink:href="#C0_0_bba2b1fcaf" x="220.479851" y="272.458585" style="fill: #e65719; stroke: #e65719"/>
    </g>
    <g clip-path="url(#p8ecc6e75f3)">
     <use xlink:href="#C0_0_bba2b1fcaf" x="179.539462" y="329.397338" style="fill: #e65719; stroke: #e65719"/>
    </g>
    <g clip-path="url(#p8ecc6e75f3)">
     <use xlink:href="#C0_0_bba2b1fcaf" x="196.435805" y="282.353718" style="fill: #e65719; stroke: #e65719"/>
    </g>
    <g clip-path="url(#p8ecc6e75f3)">
     <use xlink:href="#C0_0_bba2b1fcaf" x="250.199253" y="246.254552" style="fill: #e65719; stroke: #e65719"/>
    </g>
    <g clip-path="url(#p8ecc6e75f3)">
     <use xlink:href="#C0_0_bba2b1fcaf" x="240.42467" y="188.839442" style="fill: #e65719; stroke: #e65719"/>
    </g>
    <g clip-path="url(#p8ecc6e75f3)">
     <use xlink:href="#C0_0_bba2b1fcaf" x="301.598511" y="203.897616" style="fill: #19a8e6; stroke: #19a8e6"/>
    </g>
    <g clip-path="url(#p8ecc6e75f3)">
     <use xlink:href="#C0_0_bba2b1fcaf" x="160.38595" y="168.466705" style="fill: #e65719; stroke: #e65719"/>
    </g>
    <g clip-path="url(#p8ecc6e75f3)">
     <use xlink:href="#C0_0_bba2b1fcaf" x="190.925846" y="183.862897" style="fill: #19a8e6; stroke: #19a8e6"/>
    </g>
    <g clip-path="url(#p8ecc6e75f3)">
     <use xlink:href="#C0_0_bba2b1fcaf" x="272.69636" y="182.218362" style="fill: #e65719; stroke: #e65719"/>
    </g>
    <g clip-path="url(#p8ecc6e75f3)">
     <use xlink:href="#C0_0_bba2b1fcaf" x="271.493185" y="264.965604" style="fill: #e65719; stroke: #e65719"/>
    </g>
    <g clip-path="url(#p8ecc6e75f3)">
     <use xlink:href="#C0_0_bba2b1fcaf" x="270.079211" y="151.379868" style="fill: #19a8e6; stroke: #19a8e6"/>
    </g>
    <g clip-path="url(#p8ecc6e75f3)">
     <use xlink:href="#C0_0_bba2b1fcaf" x="126.625696" y="277.80326" style="fill: #e65719; stroke: #e65719"/>
    </g>
    <g clip-path="url(#p8ecc6e75f3)">
     <use xlink:href="#C0_0_bba2b1fcaf" x="434.1294" y="131.075475" style="fill: #19a8e6; stroke: #19a8e6"/>
    </g>
    <g clip-path="url(#p8ecc6e75f3)">
     <use xlink:href="#C0_0_bba2b1fcaf" x="223.722911" y="216.007508" style="fill: #e65719; stroke: #e65719"/>
    </g>
    <g clip-path="url(#p8ecc6e75f3)">
     <use xlink:href="#C0_0_bba2b1fcaf" x="311.175267" y="93.486226" style="fill: #19a8e6; stroke: #19a8e6"/>
    </g>
    <g clip-path="url(#p8ecc6e75f3)">
     <use xlink:href="#C0_0_bba2b1fcaf" x="260.262468" y="267.384827" style="fill: #e65719; stroke: #e65719"/>
    </g>
    <g clip-path="url(#p8ecc6e75f3)">
     <use xlink:href="#C0_0_bba2b1fcaf" x="180.100512" y="269.308811" style="fill: #19a8e6; stroke: #19a8e6"/>
    </g>
    <g clip-path="url(#p8ecc6e75f3)">
     <use xlink:href="#C0_0_bba2b1fcaf" x="272.942833" y="182.048307" style="fill: #19a8e6; stroke: #19a8e6"/>
    </g>
    <g clip-path="url(#p8ecc6e75f3)">
     <use xlink:href="#C0_0_bba2b1fcaf" x="97.2306" y="200.490953" style="fill: #e65719; stroke: #e65719"/>
    </g>
    <g clip-path="url(#p8ecc6e75f3)">
     <use xlink:href="#C0_0_bba2b1fcaf" x="330.841183" y="207.607042" style="fill: #19a8e6; stroke: #19a8e6"/>
    </g>
    <g clip-path="url(#p8ecc6e75f3)">
     <use xlink:href="#C0_0_bba2b1fcaf" x="171.399382" y="336.236255" style="fill: #e65719; stroke: #e65719"/>
    </g>
    <g clip-path="url(#p8ecc6e75f3)">
     <use xlink:href="#C0_0_bba2b1fcaf" x="134.243643" y="250.231416" style="fill: #e65719; stroke: #e65719"/>
    </g>
    <g clip-path="url(#p8ecc6e75f3)">
     <use xlink:href="#C0_0_bba2b1fcaf" x="347.873734" y="175.593014" style="fill: #e65719; stroke: #e65719"/>
    </g>
    <g clip-path="url(#p8ecc6e75f3)">
     <use xlink:href="#C0_0_bba2b1fcaf" x="342.957255" y="185.781658" style="fill: #19a8e6; stroke: #19a8e6"/>
    </g>
    <g clip-path="url(#p8ecc6e75f3)">
     <use xlink:href="#C0_0_bba2b1fcaf" x="199.905879" y="234.659327" style="fill: #e65719; stroke: #e65719"/>
    </g>
    <g clip-path="url(#p8ecc6e75f3)">
     <use xlink:href="#C0_0_bba2b1fcaf" x="227.429729" y="119.652927" style="fill: #19a8e6; stroke: #19a8e6"/>
    </g>
    <g clip-path="url(#p8ecc6e75f3)">
     <use xlink:href="#C0_0_bba2b1fcaf" x="195.430456" y="240.723816" style="fill: #e65719; stroke: #e65719"/>
    </g>
    <g clip-path="url(#p8ecc6e75f3)">
     <use xlink:href="#C0_0_bba2b1fcaf" x="409.362151" y="172.828128" style="fill: #19a8e6; stroke: #19a8e6"/>
    </g>
    <g clip-path="url(#p8ecc6e75f3)">
     <use xlink:href="#C0_0_bba2b1fcaf" x="174.901886" y="270.632491" style="fill: #e65719; stroke: #e65719"/>
    </g>
    <g clip-path="url(#p8ecc6e75f3)">
     <use xlink:href="#C0_0_bba2b1fcaf" x="223.544543" y="151.615832" style="fill: #19a8e6; stroke: #19a8e6"/>
    </g>
    <g clip-path="url(#p8ecc6e75f3)">
     <use xlink:href="#C0_0_bba2b1fcaf" x="227.549722" y="247.008491" style="fill: #e65719; stroke: #e65719"/>
    </g>
    <g clip-path="url(#p8ecc6e75f3)">
     <use xlink:href="#C0_0_bba2b1fcaf" x="176.60125" y="193.505967" style="fill: #e65719; stroke: #e65719"/>
    </g>
    <g clip-path="url(#p8ecc6e75f3)">
     <use xlink:href="#C0_0_bba2b1fcaf" x="251.717005" y="196.520103" style="fill: #e65719; stroke: #e65719"/>
    </g>
    <g clip-path="url(#p8ecc6e75f3)">
     <use xlink:href="#C0_0_bba2b1fcaf" x="171.739903" y="205.523594" style="fill: #e65719; stroke: #e65719"/>
    </g>
    <g clip-path="url(#p8ecc6e75f3)">
     <use xlink:href="#C0_0_bba2b1fcaf" x="204.660205" y="294.771595" style="fill: #e65719; stroke: #e65719"/>
    </g>
    <g clip-path="url(#p8ecc6e75f3)">
     <use xlink:href="#C0_0_bba2b1fcaf" x="376.435363" y="118.381147" style="fill: #19a8e6; stroke: #19a8e6"/>
    </g>
    <g clip-path="url(#p8ecc6e75f3)">
     <use xlink:href="#C0_0_bba2b1fcaf" x="339.775813" y="256.422474" style="fill: #e65719; stroke: #e65719"/>
    </g>
    <g clip-path="url(#p8ecc6e75f3)">
     <use xlink:href="#C0_0_bba2b1fcaf" x="289.394876" y="171.236667" style="fill: #19a8e6; stroke: #19a8e6"/>
    </g>
    <g clip-path="url(#p8ecc6e75f3)">
     <use xlink:href="#C0_0_bba2b1fcaf" x="352.174031" y="149.341759" style="fill: #e65719; stroke: #e65719"/>
    </g>
    <g clip-path="url(#p8ecc6e75f3)">
     <use xlink:href="#C0_0_bba2b1fcaf" x="225.48065" y="259.112908" style="fill: #e65719; stroke: #e65719"/>
    </g>
    <g clip-path="url(#p8ecc6e75f3)">
     <use xlink:href="#C0_0_bba2b1fcaf" x="226.080616" y="314.553573" style="fill: #e65719; stroke: #e65719"/>
    </g>
    <g clip-path="url(#p8ecc6e75f3)">
     <use xlink:href="#C0_0_bba2b1fcaf" x="221.096033" y="242.360593" style="fill: #e65719; stroke: #e65719"/>
    </g>
    <g clip-path="url(#p8ecc6e75f3)">
     <use xlink:href="#C0_0_bba2b1fcaf" x="207.831918" y="268.593341" style="fill: #e65719; stroke: #e65719"/>
    </g>
    <g clip-path="url(#p8ecc6e75f3)">
     <use xlink:href="#C0_0_bba2b1fcaf" x="254.415231" y="182.905331" style="fill: #e65719; stroke: #e65719"/>
    </g>
    <g clip-path="url(#p8ecc6e75f3)">
     <use xlink:href="#C0_0_bba2b1fcaf" x="245.581136" y="216.490971" style="fill: #e65719; stroke: #e65719"/>
    </g>
    <g clip-path="url(#p8ecc6e75f3)">
     <use xlink:href="#C0_0_bba2b1fcaf" x="221.790048" y="338.048132" style="fill: #e65719; stroke: #e65719"/>
    </g>
    <g clip-path="url(#p8ecc6e75f3)">
     <use xlink:href="#C0_0_bba2b1fcaf" x="321.870879" y="91.791868" style="fill: #e65719; stroke: #e65719"/>
    </g>
    <g clip-path="url(#p8ecc6e75f3)">
     <use xlink:href="#C0_0_bba2b1fcaf" x="315.676634" y="133.076413" style="fill: #19a8e6; stroke: #19a8e6"/>
    </g>
    <g clip-path="url(#p8ecc6e75f3)">
     <use xlink:href="#C0_0_bba2b1fcaf" x="153.468503" y="297.8938" style="fill: #e65719; stroke: #e65719"/>
    </g>
    <g clip-path="url(#p8ecc6e75f3)">
     <use xlink:href="#C0_0_bba2b1fcaf" x="235.404414" y="179.662655" style="fill: #e65719; stroke: #e65719"/>
    </g>
    <g clip-path="url(#p8ecc6e75f3)">
     <use xlink:href="#C0_0_bba2b1fcaf" x="186.88175" y="315.445368" style="fill: #e65719; stroke: #e65719"/>
    </g>
    <g clip-path="url(#p8ecc6e75f3)">
     <use xlink:href="#C0_0_bba2b1fcaf" x="138.141802" y="335.044384" style="fill: #e65719; stroke: #e65719"/>
    </g>
    <g clip-path="url(#p8ecc6e75f3)">
     <use xlink:href="#C0_0_bba2b1fcaf" x="300.327231" y="176.194385" style="fill: #19a8e6; stroke: #19a8e6"/>
    </g>
    <g clip-path="url(#p8ecc6e75f3)">
     <use xlink:href="#C0_0_bba2b1fcaf" x="329.219653" y="203.21053" style="fill: #19a8e6; stroke: #19a8e6"/>
    </g>
    <g clip-path="url(#p8ecc6e75f3)">
     <use xlink:href="#C0_0_bba2b1fcaf" x="135.424117" y="256.936568" style="fill: #19a8e6; stroke: #19a8e6"/>
    </g>
    <g clip-path="url(#p8ecc6e75f3)">
     <use xlink:href="#C0_0_bba2b1fcaf" x="233.361286" y="313.205514" style="fill: #e65719; stroke: #e65719"/>
    </g>
   </g>
   <g id="matplotlib.axis_1">
    <g id="xtick_1">
     <g id="line2d_1">
      <defs>
       <path id="mc26f909a91" d="M 0 0 
L 0 3.5 
" style="stroke: #000000; stroke-width: 0.8"/>
      </defs>
      <g>
       <use xlink:href="#mc26f909a91" x="86.171765" y="378" style="stroke: #000000; stroke-width: 0.8"/>
      </g>
     </g>
     <g id="text_1">
      <!-- 20 -->
      <g transform="translate(75.991765 397.1575) scale(0.16 -0.16)">
       <defs>
        <path id="DejaVuSans-32" d="M 1228 531 
L 3431 531 
L 3431 0 
L 469 0 
L 469 531 
Q 828 903 1448 1529 
Q 2069 2156 2228 2338 
Q 2531 2678 2651 2914 
Q 2772 3150 2772 3378 
Q 2772 3750 2511 3984 
Q 2250 4219 1831 4219 
Q 1534 4219 1204 4116 
Q 875 4013 500 3803 
L 500 4441 
Q 881 4594 1212 4672 
Q 1544 4750 1819 4750 
Q 2544 4750 2975 4387 
Q 3406 4025 3406 3419 
Q 3406 3131 3298 2873 
Q 3191 2616 2906 2266 
Q 2828 2175 2409 1742 
Q 1991 1309 1228 531 
z
" transform="scale(0.015625)"/>
        <path id="DejaVuSans-30" d="M 2034 4250 
Q 1547 4250 1301 3770 
Q 1056 3291 1056 2328 
Q 1056 1369 1301 889 
Q 1547 409 2034 409 
Q 2525 409 2770 889 
Q 3016 1369 3016 2328 
Q 3016 3291 2770 3770 
Q 2525 4250 2034 4250 
z
M 2034 4750 
Q 2819 4750 3233 4129 
Q 3647 3509 3647 2328 
Q 3647 1150 3233 529 
Q 2819 -91 2034 -91 
Q 1250 -91 836 529 
Q 422 1150 422 2328 
Q 422 3509 836 4129 
Q 1250 4750 2034 4750 
z
" transform="scale(0.015625)"/>
       </defs>
       <use xlink:href="#DejaVuSans-32"/>
       <use xlink:href="#DejaVuSans-30" x="63.623047"/>
      </g>
     </g>
    </g>
    <g id="xtick_2">
     <g id="line2d_2">
      <g>
       <use xlink:href="#mc26f909a91" x="151.032965" y="378" style="stroke: #000000; stroke-width: 0.8"/>
      </g>
     </g>
     <g id="text_2">
      <!-- 30 -->
      <g transform="translate(140.852965 397.1575) scale(0.16 -0.16)">
       <defs>
        <path id="DejaVuSans-33" d="M 2597 2516 
Q 3050 2419 3304 2112 
Q 3559 1806 3559 1356 
Q 3559 666 3084 287 
Q 2609 -91 1734 -91 
Q 1441 -91 1130 -33 
Q 819 25 488 141 
L 488 750 
Q 750 597 1062 519 
Q 1375 441 1716 441 
Q 2309 441 2620 675 
Q 2931 909 2931 1356 
Q 2931 1769 2642 2001 
Q 2353 2234 1838 2234 
L 1294 2234 
L 1294 2753 
L 1863 2753 
Q 2328 2753 2575 2939 
Q 2822 3125 2822 3475 
Q 2822 3834 2567 4026 
Q 2313 4219 1838 4219 
Q 1578 4219 1281 4162 
Q 984 4106 628 3988 
L 628 4550 
Q 988 4650 1302 4700 
Q 1616 4750 1894 4750 
Q 2613 4750 3031 4423 
Q 3450 4097 3450 3541 
Q 3450 3153 3228 2886 
Q 3006 2619 2597 2516 
z
" transform="scale(0.015625)"/>
       </defs>
       <use xlink:href="#DejaVuSans-33"/>
       <use xlink:href="#DejaVuSans-30" x="63.623047"/>
      </g>
     </g>
    </g>
    <g id="xtick_3">
     <g id="line2d_3">
      <g>
       <use xlink:href="#mc26f909a91" x="215.894165" y="378" style="stroke: #000000; stroke-width: 0.8"/>
      </g>
     </g>
     <g id="text_3">
      <!-- 40 -->
      <g transform="translate(205.714165 397.1575) scale(0.16 -0.16)">
       <defs>
        <path id="DejaVuSans-34" d="M 2419 4116 
L 825 1625 
L 2419 1625 
L 2419 4116 
z
M 2253 4666 
L 3047 4666 
L 3047 1625 
L 3713 1625 
L 3713 1100 
L 3047 1100 
L 3047 0 
L 2419 0 
L 2419 1100 
L 313 1100 
L 313 1709 
L 2253 4666 
z
" transform="scale(0.015625)"/>
       </defs>
       <use xlink:href="#DejaVuSans-34"/>
       <use xlink:href="#DejaVuSans-30" x="63.623047"/>
      </g>
     </g>
    </g>
    <g id="xtick_4">
     <g id="line2d_4">
      <g>
       <use xlink:href="#mc26f909a91" x="280.755364" y="378" style="stroke: #000000; stroke-width: 0.8"/>
      </g>
     </g>
     <g id="text_4">
      <!-- 50 -->
      <g transform="translate(270.575364 397.1575) scale(0.16 -0.16)">
       <defs>
        <path id="DejaVuSans-35" d="M 691 4666 
L 3169 4666 
L 3169 4134 
L 1269 4134 
L 1269 2991 
Q 1406 3038 1543 3061 
Q 1681 3084 1819 3084 
Q 2600 3084 3056 2656 
Q 3513 2228 3513 1497 
Q 3513 744 3044 326 
Q 2575 -91 1722 -91 
Q 1428 -91 1123 -41 
Q 819 9 494 109 
L 494 744 
Q 775 591 1075 516 
Q 1375 441 1709 441 
Q 2250 441 2565 725 
Q 2881 1009 2881 1497 
Q 2881 1984 2565 2268 
Q 2250 2553 1709 2553 
Q 1456 2553 1204 2497 
Q 953 2441 691 2322 
L 691 4666 
z
" transform="scale(0.015625)"/>
       </defs>
       <use xlink:href="#DejaVuSans-35"/>
       <use xlink:href="#DejaVuSans-30" x="63.623047"/>
      </g>
     </g>
    </g>
    <g id="xtick_5">
     <g id="line2d_5">
      <g>
       <use xlink:href="#mc26f909a91" x="345.616564" y="378" style="stroke: #000000; stroke-width: 0.8"/>
      </g>
     </g>
     <g id="text_5">
      <!-- 60 -->
      <g transform="translate(335.436564 397.1575) scale(0.16 -0.16)">
       <defs>
        <path id="DejaVuSans-36" d="M 2113 2584 
Q 1688 2584 1439 2293 
Q 1191 2003 1191 1497 
Q 1191 994 1439 701 
Q 1688 409 2113 409 
Q 2538 409 2786 701 
Q 3034 994 3034 1497 
Q 3034 2003 2786 2293 
Q 2538 2584 2113 2584 
z
M 3366 4563 
L 3366 3988 
Q 3128 4100 2886 4159 
Q 2644 4219 2406 4219 
Q 1781 4219 1451 3797 
Q 1122 3375 1075 2522 
Q 1259 2794 1537 2939 
Q 1816 3084 2150 3084 
Q 2853 3084 3261 2657 
Q 3669 2231 3669 1497 
Q 3669 778 3244 343 
Q 2819 -91 2113 -91 
Q 1303 -91 875 529 
Q 447 1150 447 2328 
Q 447 3434 972 4092 
Q 1497 4750 2381 4750 
Q 2619 4750 2861 4703 
Q 3103 4656 3366 4563 
z
" transform="scale(0.015625)"/>
       </defs>
       <use xlink:href="#DejaVuSans-36"/>
       <use xlink:href="#DejaVuSans-30" x="63.623047"/>
      </g>
     </g>
    </g>
    <g id="xtick_6">
     <g id="line2d_6">
      <g>
       <use xlink:href="#mc26f909a91" x="410.477764" y="378" style="stroke: #000000; stroke-width: 0.8"/>
      </g>
     </g>
     <g id="text_6">
      <!-- 70 -->
      <g transform="translate(400.297764 397.1575) scale(0.16 -0.16)">
       <defs>
        <path id="DejaVuSans-37" d="M 525 4666 
L 3525 4666 
L 3525 4397 
L 1831 0 
L 1172 0 
L 2766 4134 
L 525 4134 
L 525 4666 
z
" transform="scale(0.015625)"/>
       </defs>
       <use xlink:href="#DejaVuSans-37"/>
       <use xlink:href="#DejaVuSans-30" x="63.623047"/>
      </g>
     </g>
    </g>
    <g id="text_7">
     <!-- True leaf size ($mm^2$) -->
     <g transform="translate(173.25 419.641563) scale(0.18 -0.18)">
      <defs>
       <path id="DejaVuSans-54" d="M -19 4666 
L 3928 4666 
L 3928 4134 
L 2272 4134 
L 2272 0 
L 1638 0 
L 1638 4134 
L -19 4134 
L -19 4666 
z
" transform="scale(0.015625)"/>
       <path id="DejaVuSans-72" d="M 2631 2963 
Q 2534 3019 2420 3045 
Q 2306 3072 2169 3072 
Q 1681 3072 1420 2755 
Q 1159 2438 1159 1844 
L 1159 0 
L 581 0 
L 581 3500 
L 1159 3500 
L 1159 2956 
Q 1341 3275 1631 3429 
Q 1922 3584 2338 3584 
Q 2397 3584 2469 3576 
Q 2541 3569 2628 3553 
L 2631 2963 
z
" transform="scale(0.015625)"/>
       <path id="DejaVuSans-75" d="M 544 1381 
L 544 3500 
L 1119 3500 
L 1119 1403 
Q 1119 906 1312 657 
Q 1506 409 1894 409 
Q 2359 409 2629 706 
Q 2900 1003 2900 1516 
L 2900 3500 
L 3475 3500 
L 3475 0 
L 2900 0 
L 2900 538 
Q 2691 219 2414 64 
Q 2138 -91 1772 -91 
Q 1169 -91 856 284 
Q 544 659 544 1381 
z
M 1991 3584 
L 1991 3584 
z
" transform="scale(0.015625)"/>
       <path id="DejaVuSans-65" d="M 3597 1894 
L 3597 1613 
L 953 1613 
Q 991 1019 1311 708 
Q 1631 397 2203 397 
Q 2534 397 2845 478 
Q 3156 559 3463 722 
L 3463 178 
Q 3153 47 2828 -22 
Q 2503 -91 2169 -91 
Q 1331 -91 842 396 
Q 353 884 353 1716 
Q 353 2575 817 3079 
Q 1281 3584 2069 3584 
Q 2775 3584 3186 3129 
Q 3597 2675 3597 1894 
z
M 3022 2063 
Q 3016 2534 2758 2815 
Q 2500 3097 2075 3097 
Q 1594 3097 1305 2825 
Q 1016 2553 972 2059 
L 3022 2063 
z
" transform="scale(0.015625)"/>
       <path id="DejaVuSans-20" transform="scale(0.015625)"/>
       <path id="DejaVuSans-6c" d="M 603 4863 
L 1178 4863 
L 1178 0 
L 603 0 
L 603 4863 
z
" transform="scale(0.015625)"/>
       <path id="DejaVuSans-61" d="M 2194 1759 
Q 1497 1759 1228 1600 
Q 959 1441 959 1056 
Q 959 750 1161 570 
Q 1363 391 1709 391 
Q 2188 391 2477 730 
Q 2766 1069 2766 1631 
L 2766 1759 
L 2194 1759 
z
M 3341 1997 
L 3341 0 
L 2766 0 
L 2766 531 
Q 2569 213 2275 61 
Q 1981 -91 1556 -91 
Q 1019 -91 701 211 
Q 384 513 384 1019 
Q 384 1609 779 1909 
Q 1175 2209 1959 2209 
L 2766 2209 
L 2766 2266 
Q 2766 2663 2505 2880 
Q 2244 3097 1772 3097 
Q 1472 3097 1187 3025 
Q 903 2953 641 2809 
L 641 3341 
Q 956 3463 1253 3523 
Q 1550 3584 1831 3584 
Q 2591 3584 2966 3190 
Q 3341 2797 3341 1997 
z
" transform="scale(0.015625)"/>
       <path id="DejaVuSans-66" d="M 2375 4863 
L 2375 4384 
L 1825 4384 
Q 1516 4384 1395 4259 
Q 1275 4134 1275 3809 
L 1275 3500 
L 2222 3500 
L 2222 3053 
L 1275 3053 
L 1275 0 
L 697 0 
L 697 3053 
L 147 3053 
L 147 3500 
L 697 3500 
L 697 3744 
Q 697 4328 969 4595 
Q 1241 4863 1831 4863 
L 2375 4863 
z
" transform="scale(0.015625)"/>
       <path id="DejaVuSans-73" d="M 2834 3397 
L 2834 2853 
Q 2591 2978 2328 3040 
Q 2066 3103 1784 3103 
Q 1356 3103 1142 2972 
Q 928 2841 928 2578 
Q 928 2378 1081 2264 
Q 1234 2150 1697 2047 
L 1894 2003 
Q 2506 1872 2764 1633 
Q 3022 1394 3022 966 
Q 3022 478 2636 193 
Q 2250 -91 1575 -91 
Q 1294 -91 989 -36 
Q 684 19 347 128 
L 347 722 
Q 666 556 975 473 
Q 1284 391 1588 391 
Q 1994 391 2212 530 
Q 2431 669 2431 922 
Q 2431 1156 2273 1281 
Q 2116 1406 1581 1522 
L 1381 1569 
Q 847 1681 609 1914 
Q 372 2147 372 2553 
Q 372 3047 722 3315 
Q 1072 3584 1716 3584 
Q 2034 3584 2315 3537 
Q 2597 3491 2834 3397 
z
" transform="scale(0.015625)"/>
       <path id="DejaVuSans-69" d="M 603 3500 
L 1178 3500 
L 1178 0 
L 603 0 
L 603 3500 
z
M 603 4863 
L 1178 4863 
L 1178 4134 
L 603 4134 
L 603 4863 
z
" transform="scale(0.015625)"/>
       <path id="DejaVuSans-7a" d="M 353 3500 
L 3084 3500 
L 3084 2975 
L 922 459 
L 3084 459 
L 3084 0 
L 275 0 
L 275 525 
L 2438 3041 
L 353 3041 
L 353 3500 
z
" transform="scale(0.015625)"/>
       <path id="DejaVuSans-28" d="M 1984 4856 
Q 1566 4138 1362 3434 
Q 1159 2731 1159 2009 
Q 1159 1288 1364 580 
Q 1569 -128 1984 -844 
L 1484 -844 
Q 1016 -109 783 600 
Q 550 1309 550 2009 
Q 550 2706 781 3412 
Q 1013 4119 1484 4856 
L 1984 4856 
z
" transform="scale(0.015625)"/>
       <path id="DejaVuSans-Oblique-6d" d="M 5747 2113 
L 5338 0 
L 4763 0 
L 5166 2094 
Q 5191 2228 5203 2325 
Q 5216 2422 5216 2491 
Q 5216 2772 5059 2928 
Q 4903 3084 4622 3084 
Q 4203 3084 3875 2770 
Q 3547 2456 3450 1953 
L 3066 0 
L 2491 0 
L 2900 2094 
Q 2925 2209 2937 2307 
Q 2950 2406 2950 2484 
Q 2950 2769 2794 2926 
Q 2638 3084 2363 3084 
Q 1938 3084 1609 2770 
Q 1281 2456 1184 1953 
L 800 0 
L 225 0 
L 909 3500 
L 1484 3500 
L 1375 2956 
Q 1609 3263 1923 3423 
Q 2238 3584 2597 3584 
Q 2978 3584 3223 3384 
Q 3469 3184 3519 2828 
Q 3781 3197 4126 3390 
Q 4472 3584 4856 3584 
Q 5306 3584 5551 3325 
Q 5797 3066 5797 2591 
Q 5797 2488 5784 2364 
Q 5772 2241 5747 2113 
z
" transform="scale(0.015625)"/>
       <path id="DejaVuSans-29" d="M 513 4856 
L 1013 4856 
Q 1481 4119 1714 3412 
Q 1947 2706 1947 2009 
Q 1947 1309 1714 600 
Q 1481 -109 1013 -844 
L 513 -844 
Q 928 -128 1133 580 
Q 1338 1288 1338 2009 
Q 1338 2731 1133 3434 
Q 928 4138 513 4856 
z
" transform="scale(0.015625)"/>
      </defs>
      <use xlink:href="#DejaVuSans-54" transform="translate(0 0.765625)"/>
      <use xlink:href="#DejaVuSans-72" transform="translate(61.083984 0.765625)"/>
      <use xlink:href="#DejaVuSans-75" transform="translate(102.197266 0.765625)"/>
      <use xlink:href="#DejaVuSans-65" transform="translate(165.576172 0.765625)"/>
      <use xlink:href="#DejaVuSans-20" transform="translate(227.099609 0.765625)"/>
      <use xlink:href="#DejaVuSans-6c" transform="translate(258.886719 0.765625)"/>
      <use xlink:href="#DejaVuSans-65" transform="translate(286.669922 0.765625)"/>
      <use xlink:href="#DejaVuSans-61" transform="translate(348.193359 0.765625)"/>
      <use xlink:href="#DejaVuSans-66" transform="translate(409.472656 0.765625)"/>
      <use xlink:href="#DejaVuSans-20" transform="translate(444.677734 0.765625)"/>
      <use xlink:href="#DejaVuSans-73" transform="translate(476.464844 0.765625)"/>
      <use xlink:href="#DejaVuSans-69" transform="translate(528.564453 0.765625)"/>
      <use xlink:href="#DejaVuSans-7a" transform="translate(556.347656 0.765625)"/>
      <use xlink:href="#DejaVuSans-65" transform="translate(608.837891 0.765625)"/>
      <use xlink:href="#DejaVuSans-20" transform="translate(670.361328 0.765625)"/>
      <use xlink:href="#DejaVuSans-28" transform="translate(702.148438 0.765625)"/>
      <use xlink:href="#DejaVuSans-Oblique-6d" transform="translate(741.162109 0.765625)"/>
      <use xlink:href="#DejaVuSans-Oblique-6d" transform="translate(838.574219 0.765625)"/>
      <use xlink:href="#DejaVuSans-32" transform="translate(940.636224 39.046875) scale(0.7)"/>
      <use xlink:href="#DejaVuSans-29" transform="translate(987.906732 0.765625)"/>
     </g>
    </g>
   </g>
   <g id="matplotlib.axis_2">
    <g id="ytick_1">
     <g id="line2d_7">
      <defs>
       <path id="m10254d80e0" d="M 0 0 
L -3.5 0 
" style="stroke: #000000; stroke-width: 0.8"/>
      </defs>
      <g>
       <use xlink:href="#m10254d80e0" x="64.8" y="370.528623" style="stroke: #000000; stroke-width: 0.8"/>
      </g>
     </g>
     <g id="text_8">
      <!-- 25 -->
      <g transform="translate(37.44 376.607373) scale(0.16 -0.16)">
       <use xlink:href="#DejaVuSans-32"/>
       <use xlink:href="#DejaVuSans-35" x="63.623047"/>
      </g>
     </g>
    </g>
    <g id="ytick_2">
     <g id="line2d_8">
      <g>
       <use xlink:href="#m10254d80e0" x="64.8" y="330.576755" style="stroke: #000000; stroke-width: 0.8"/>
      </g>
     </g>
     <g id="text_9">
      <!-- 30 -->
      <g transform="translate(37.44 336.655505) scale(0.16 -0.16)">
       <use xlink:href="#DejaVuSans-33"/>
       <use xlink:href="#DejaVuSans-30" x="63.623047"/>
      </g>
     </g>
    </g>
    <g id="ytick_3">
     <g id="line2d_9">
      <g>
       <use xlink:href="#m10254d80e0" x="64.8" y="290.624886" style="stroke: #000000; stroke-width: 0.8"/>
      </g>
     </g>
     <g id="text_10">
      <!-- 35 -->
      <g transform="translate(37.44 296.703636) scale(0.16 -0.16)">
       <use xlink:href="#DejaVuSans-33"/>
       <use xlink:href="#DejaVuSans-35" x="63.623047"/>
      </g>
     </g>
    </g>
    <g id="ytick_4">
     <g id="line2d_10">
      <g>
       <use xlink:href="#m10254d80e0" x="64.8" y="250.673018" style="stroke: #000000; stroke-width: 0.8"/>
      </g>
     </g>
     <g id="text_11">
      <!-- 40 -->
      <g transform="translate(37.44 256.751768) scale(0.16 -0.16)">
       <use xlink:href="#DejaVuSans-34"/>
       <use xlink:href="#DejaVuSans-30" x="63.623047"/>
      </g>
     </g>
    </g>
    <g id="ytick_5">
     <g id="line2d_11">
      <g>
       <use xlink:href="#m10254d80e0" x="64.8" y="210.72115" style="stroke: #000000; stroke-width: 0.8"/>
      </g>
     </g>
     <g id="text_12">
      <!-- 45 -->
      <g transform="translate(37.44 216.7999) scale(0.16 -0.16)">
       <use xlink:href="#DejaVuSans-34"/>
       <use xlink:href="#DejaVuSans-35" x="63.623047"/>
      </g>
     </g>
    </g>
    <g id="ytick_6">
     <g id="line2d_12">
      <g>
       <use xlink:href="#m10254d80e0" x="64.8" y="170.769282" style="stroke: #000000; stroke-width: 0.8"/>
      </g>
     </g>
     <g id="text_13">
      <!-- 50 -->
      <g transform="translate(37.44 176.848032) scale(0.16 -0.16)">
       <use xlink:href="#DejaVuSans-35"/>
       <use xlink:href="#DejaVuSans-30" x="63.623047"/>
      </g>
     </g>
    </g>
    <g id="ytick_7">
     <g id="line2d_13">
      <g>
       <use xlink:href="#m10254d80e0" x="64.8" y="130.817413" style="stroke: #000000; stroke-width: 0.8"/>
      </g>
     </g>
     <g id="text_14">
      <!-- 55 -->
      <g transform="translate(37.44 136.896163) scale(0.16 -0.16)">
       <use xlink:href="#DejaVuSans-35"/>
       <use xlink:href="#DejaVuSans-35" x="63.623047"/>
      </g>
     </g>
    </g>
    <g id="ytick_8">
     <g id="line2d_14">
      <g>
       <use xlink:href="#m10254d80e0" x="64.8" y="90.865545" style="stroke: #000000; stroke-width: 0.8"/>
      </g>
     </g>
     <g id="text_15">
      <!-- 60 -->
      <g transform="translate(37.44 96.944295) scale(0.16 -0.16)">
       <use xlink:href="#DejaVuSans-36"/>
       <use xlink:href="#DejaVuSans-30" x="63.623047"/>
      </g>
     </g>
    </g>
    <g id="text_16">
     <!-- Predicted leaf size ($mm^2$) -->
     <g transform="translate(29.696562 329.58) rotate(-90) scale(0.18 -0.18)">
      <defs>
       <path id="DejaVuSans-50" d="M 1259 4147 
L 1259 2394 
L 2053 2394 
Q 2494 2394 2734 2622 
Q 2975 2850 2975 3272 
Q 2975 3691 2734 3919 
Q 2494 4147 2053 4147 
L 1259 4147 
z
M 628 4666 
L 2053 4666 
Q 2838 4666 3239 4311 
Q 3641 3956 3641 3272 
Q 3641 2581 3239 2228 
Q 2838 1875 2053 1875 
L 1259 1875 
L 1259 0 
L 628 0 
L 628 4666 
z
" transform="scale(0.015625)"/>
       <path id="DejaVuSans-64" d="M 2906 2969 
L 2906 4863 
L 3481 4863 
L 3481 0 
L 2906 0 
L 2906 525 
Q 2725 213 2448 61 
Q 2172 -91 1784 -91 
Q 1150 -91 751 415 
Q 353 922 353 1747 
Q 353 2572 751 3078 
Q 1150 3584 1784 3584 
Q 2172 3584 2448 3432 
Q 2725 3281 2906 2969 
z
M 947 1747 
Q 947 1113 1208 752 
Q 1469 391 1925 391 
Q 2381 391 2643 752 
Q 2906 1113 2906 1747 
Q 2906 2381 2643 2742 
Q 2381 3103 1925 3103 
Q 1469 3103 1208 2742 
Q 947 2381 947 1747 
z
" transform="scale(0.015625)"/>
       <path id="DejaVuSans-63" d="M 3122 3366 
L 3122 2828 
Q 2878 2963 2633 3030 
Q 2388 3097 2138 3097 
Q 1578 3097 1268 2742 
Q 959 2388 959 1747 
Q 959 1106 1268 751 
Q 1578 397 2138 397 
Q 2388 397 2633 464 
Q 2878 531 3122 666 
L 3122 134 
Q 2881 22 2623 -34 
Q 2366 -91 2075 -91 
Q 1284 -91 818 406 
Q 353 903 353 1747 
Q 353 2603 823 3093 
Q 1294 3584 2113 3584 
Q 2378 3584 2631 3529 
Q 2884 3475 3122 3366 
z
" transform="scale(0.015625)"/>
       <path id="DejaVuSans-74" d="M 1172 4494 
L 1172 3500 
L 2356 3500 
L 2356 3053 
L 1172 3053 
L 1172 1153 
Q 1172 725 1289 603 
Q 1406 481 1766 481 
L 2356 481 
L 2356 0 
L 1766 0 
Q 1100 0 847 248 
Q 594 497 594 1153 
L 594 3053 
L 172 3053 
L 172 3500 
L 594 3500 
L 594 4494 
L 1172 4494 
z
" transform="scale(0.015625)"/>
      </defs>
      <use xlink:href="#DejaVuSans-50" transform="translate(0 0.765625)"/>
      <use xlink:href="#DejaVuSans-72" transform="translate(60.302734 0.765625)"/>
      <use xlink:href="#DejaVuSans-65" transform="translate(101.416016 0.765625)"/>
      <use xlink:href="#DejaVuSans-64" transform="translate(162.939453 0.765625)"/>
      <use xlink:href="#DejaVuSans-69" transform="translate(226.416016 0.765625)"/>
      <use xlink:href="#DejaVuSans-63" transform="translate(254.199219 0.765625)"/>
      <use xlink:href="#DejaVuSans-74" transform="translate(309.179688 0.765625)"/>
      <use xlink:href="#DejaVuSans-65" transform="translate(348.388672 0.765625)"/>
      <use xlink:href="#DejaVuSans-64" transform="translate(409.912109 0.765625)"/>
      <use xlink:href="#DejaVuSans-20" transform="translate(473.388672 0.765625)"/>
      <use xlink:href="#DejaVuSans-6c" transform="translate(505.175781 0.765625)"/>
      <use xlink:href="#DejaVuSans-65" transform="translate(532.958984 0.765625)"/>
      <use xlink:href="#DejaVuSans-61" transform="translate(594.482422 0.765625)"/>
      <use xlink:href="#DejaVuSans-66" transform="translate(655.761719 0.765625)"/>
      <use xlink:href="#DejaVuSans-20" transform="translate(690.966797 0.765625)"/>
      <use xlink:href="#DejaVuSans-73" transform="translate(722.753906 0.765625)"/>
      <use xlink:href="#DejaVuSans-69" transform="translate(774.853516 0.765625)"/>
      <use xlink:href="#DejaVuSans-7a" transform="translate(802.636719 0.765625)"/>
      <use xlink:href="#DejaVuSans-65" transform="translate(855.126953 0.765625)"/>
      <use xlink:href="#DejaVuSans-20" transform="translate(916.650391 0.765625)"/>
      <use xlink:href="#DejaVuSans-28" transform="translate(948.4375 0.765625)"/>
      <use xlink:href="#DejaVuSans-Oblique-6d" transform="translate(987.451172 0.765625)"/>
      <use xlink:href="#DejaVuSans-Oblique-6d" transform="translate(1084.863281 0.765625)"/>
      <use xlink:href="#DejaVuSans-32" transform="translate(1186.925286 39.046875) scale(0.7)"/>
      <use xlink:href="#DejaVuSans-29" transform="translate(1234.195794 0.765625)"/>
     </g>
    </g>
   </g>
   <g id="line2d_15">
    <path d="M 67.89174 433 
L 420.187663 -1 
L 420.187663 -1 
" clip-path="url(#p8ecc6e75f3)" style="fill: none; stroke-dasharray: 5.55,2.4; stroke-dashoffset: 0; stroke: #000000; stroke-width: 1.5"/>
   </g>
   <g id="patch_3">
    <path d="M 64.8 378 
L 64.8 51.84 
" style="fill: none; stroke: #000000; stroke-width: 0.8; stroke-linejoin: miter; stroke-linecap: square"/>
   </g>
   <g id="patch_4">
    <path d="M 466.56 378 
L 466.56 51.84 
" style="fill: none; stroke: #000000; stroke-width: 0.8; stroke-linejoin: miter; stroke-linecap: square"/>
   </g>
   <g id="patch_5">
    <path d="M 64.8 378 
L 466.56 378 
" style="fill: none; stroke: #000000; stroke-width: 0.8; stroke-linejoin: miter; stroke-linecap: square"/>
   </g>
   <g id="patch_6">
    <path d="M 64.8 51.84 
L 466.56 51.84 
" style="fill: none; stroke: #000000; stroke-width: 0.8; stroke-linejoin: miter; stroke-linecap: square"/>
   </g>
   <g id="text_17">
    <!-- RMSE: 9.97 -->
    <g transform="translate(346.032 361.692) scale(0.18 -0.18)">
     <defs>
      <path id="DejaVuSans-52" d="M 2841 2188 
Q 3044 2119 3236 1894 
Q 3428 1669 3622 1275 
L 4263 0 
L 3584 0 
L 2988 1197 
Q 2756 1666 2539 1819 
Q 2322 1972 1947 1972 
L 1259 1972 
L 1259 0 
L 628 0 
L 628 4666 
L 2053 4666 
Q 2853 4666 3247 4331 
Q 3641 3997 3641 3322 
Q 3641 2881 3436 2590 
Q 3231 2300 2841 2188 
z
M 1259 4147 
L 1259 2491 
L 2053 2491 
Q 2509 2491 2742 2702 
Q 2975 2913 2975 3322 
Q 2975 3731 2742 3939 
Q 2509 4147 2053 4147 
L 1259 4147 
z
" transform="scale(0.015625)"/>
      <path id="DejaVuSans-4d" d="M 628 4666 
L 1569 4666 
L 2759 1491 
L 3956 4666 
L 4897 4666 
L 4897 0 
L 4281 0 
L 4281 4097 
L 3078 897 
L 2444 897 
L 1241 4097 
L 1241 0 
L 628 0 
L 628 4666 
z
" transform="scale(0.015625)"/>
      <path id="DejaVuSans-53" d="M 3425 4513 
L 3425 3897 
Q 3066 4069 2747 4153 
Q 2428 4238 2131 4238 
Q 1616 4238 1336 4038 
Q 1056 3838 1056 3469 
Q 1056 3159 1242 3001 
Q 1428 2844 1947 2747 
L 2328 2669 
Q 3034 2534 3370 2195 
Q 3706 1856 3706 1288 
Q 3706 609 3251 259 
Q 2797 -91 1919 -91 
Q 1588 -91 1214 -16 
Q 841 59 441 206 
L 441 856 
Q 825 641 1194 531 
Q 1563 422 1919 422 
Q 2459 422 2753 634 
Q 3047 847 3047 1241 
Q 3047 1584 2836 1778 
Q 2625 1972 2144 2069 
L 1759 2144 
Q 1053 2284 737 2584 
Q 422 2884 422 3419 
Q 422 4038 858 4394 
Q 1294 4750 2059 4750 
Q 2388 4750 2728 4690 
Q 3069 4631 3425 4513 
z
" transform="scale(0.015625)"/>
      <path id="DejaVuSans-45" d="M 628 4666 
L 3578 4666 
L 3578 4134 
L 1259 4134 
L 1259 2753 
L 3481 2753 
L 3481 2222 
L 1259 2222 
L 1259 531 
L 3634 531 
L 3634 0 
L 628 0 
L 628 4666 
z
" transform="scale(0.015625)"/>
      <path id="DejaVuSans-3a" d="M 750 794 
L 1409 794 
L 1409 0 
L 750 0 
L 750 794 
z
M 750 3309 
L 1409 3309 
L 1409 2516 
L 750 2516 
L 750 3309 
z
" transform="scale(0.015625)"/>
      <path id="DejaVuSans-39" d="M 703 97 
L 703 672 
Q 941 559 1184 500 
Q 1428 441 1663 441 
Q 2288 441 2617 861 
Q 2947 1281 2994 2138 
Q 2813 1869 2534 1725 
Q 2256 1581 1919 1581 
Q 1219 1581 811 2004 
Q 403 2428 403 3163 
Q 403 3881 828 4315 
Q 1253 4750 1959 4750 
Q 2769 4750 3195 4129 
Q 3622 3509 3622 2328 
Q 3622 1225 3098 567 
Q 2575 -91 1691 -91 
Q 1453 -91 1209 -44 
Q 966 3 703 97 
z
M 1959 2075 
Q 2384 2075 2632 2365 
Q 2881 2656 2881 3163 
Q 2881 3666 2632 3958 
Q 2384 4250 1959 4250 
Q 1534 4250 1286 3958 
Q 1038 3666 1038 3163 
Q 1038 2656 1286 2365 
Q 1534 2075 1959 2075 
z
" transform="scale(0.015625)"/>
      <path id="DejaVuSans-2e" d="M 684 794 
L 1344 794 
L 1344 0 
L 684 0 
L 684 794 
z
" transform="scale(0.015625)"/>
     </defs>
     <use xlink:href="#DejaVuSans-52"/>
     <use xlink:href="#DejaVuSans-4d" x="69.482422"/>
     <use xlink:href="#DejaVuSans-53" x="155.761719"/>
     <use xlink:href="#DejaVuSans-45" x="219.238281"/>
     <use xlink:href="#DejaVuSans-3a" x="282.421875"/>
     <use xlink:href="#DejaVuSans-20" x="316.113281"/>
     <use xlink:href="#DejaVuSans-39" x="347.900391"/>
     <use xlink:href="#DejaVuSans-2e" x="411.523438"/>
     <use xlink:href="#DejaVuSans-39" x="443.310547"/>
     <use xlink:href="#DejaVuSans-37" x="506.933594"/>
    </g>
   </g>
   <g id="text_18">
    <!-- $R^2$: 0.29 -->
    <g transform="translate(346.032 329.076) scale(0.18 -0.18)">
     <defs>
      <path id="DejaVuSans-Oblique-52" d="M 1613 4147 
L 1294 2491 
L 2106 2491 
Q 2584 2491 2879 2755 
Q 3175 3019 3175 3444 
Q 3175 3784 2976 3965 
Q 2778 4147 2406 4147 
L 1613 4147 
z
M 2772 2241 
Q 2972 2194 3105 2009 
Q 3238 1825 3413 1275 
L 3809 0 
L 3144 0 
L 2778 1197 
Q 2638 1659 2453 1815 
Q 2269 1972 1888 1972 
L 1191 1972 
L 806 0 
L 172 0 
L 1081 4666 
L 2503 4666 
Q 3150 4666 3495 4373 
Q 3841 4081 3841 3531 
Q 3841 3044 3547 2687 
Q 3253 2331 2772 2241 
z
" transform="scale(0.015625)"/>
     </defs>
     <use xlink:href="#DejaVuSans-Oblique-52" transform="translate(0 0.765625)"/>
     <use xlink:href="#DejaVuSans-32" transform="translate(76.499193 39.046875) scale(0.7)"/>
     <use xlink:href="#DejaVuSans-3a" transform="translate(123.769701 0.765625)"/>
     <use xlink:href="#DejaVuSans-20" transform="translate(157.461107 0.765625)"/>
     <use xlink:href="#DejaVuSans-30" transform="translate(189.248216 0.765625)"/>
     <use xlink:href="#DejaVuSans-2e" transform="translate(252.871263 0.765625)"/>
     <use xlink:href="#DejaVuSans-32" transform="translate(279.158372 0.765625)"/>
     <use xlink:href="#DejaVuSans-39" transform="translate(341.031419 0.765625)"/>
    </g>
   </g>
  </g>
 </g>
 <defs>
  <clipPath id="p8ecc6e75f3">
   <rect x="64.8" y="51.84" width="401.76" height="326.16"/>
  </clipPath>
 </defs>
</svg>
