<?xml version="1.0" encoding="utf-8" standalone="no"?>
<!DOCTYPE svg PUBLIC "-//W3C//DTD SVG 1.1//EN"
  "http://www.w3.org/Graphics/SVG/1.1/DTD/svg11.dtd">
<svg xmlns:xlink="http://www.w3.org/1999/xlink" width="518.4pt" height="432pt" viewBox="0 0 518.4 432" xmlns="http://www.w3.org/2000/svg" version="1.1">
 <metadata>
  <rdf:RDF xmlns:dc="http://purl.org/dc/elements/1.1/" xmlns:cc="http://creativecommons.org/ns#" xmlns:rdf="http://www.w3.org/1999/02/22-rdf-syntax-ns#">
   <cc:Work>
    <dc:type rdf:resource="http://purl.org/dc/dcmitype/StillImage"/>
    <dc:date>2023-05-10T11:02:27.748312</dc:date>
    <dc:format>image/svg+xml</dc:format>
    <dc:creator>
     <cc:Agent>
      <dc:title>Matplotlib v3.6.2, https://matplotlib.org/</dc:title>
     </cc:Agent>
    </dc:creator>
   </cc:Work>
  </rdf:RDF>
 </metadata>
 <defs>
  <style type="text/css">*{stroke-linejoin: round; stroke-linecap: butt}</style>
 </defs>
 <g id="figure_1">
  <g id="patch_1">
   <path d="M 0 432 
L 518.4 432 
L 518.4 0 
L 0 0 
L 0 432 
z
" style="fill: none"/>
  </g>
  <g id="axes_1">
   <g id="patch_2">
    <path d="M 51.84 388.8 
L 466.56 388.8 
L 466.56 43.2 
L 51.84 43.2 
z
" style="fill: #ffffff"/>
   </g>
   <g id="patch_3">
    <path d="M 70.690909 388.8 
L 76.491189 388.8 
L 76.491189 59.657143 
L 70.690909 59.657143 
z
" clip-path="url(#p63337aed5f)" style="fill: #1f77b4"/>
   </g>
   <g id="patch_4">
    <path d="M 76.491189 388.8 
L 82.291469 388.8 
L 82.291469 275.452791 
L 76.491189 275.452791 
z
" clip-path="url(#p63337aed5f)" style="fill: #1f77b4"/>
   </g>
   <g id="patch_5">
    <path d="M 82.291469 388.8 
L 88.091748 388.8 
L 88.091748 340.845412 
L 82.291469 340.845412 
z
" clip-path="url(#p63337aed5f)" style="fill: #1f77b4"/>
   </g>
   <g id="patch_6">
    <path d="M 88.091748 388.8 
L 93.892028 388.8 
L 93.892028 349.564428 
L 88.091748 349.564428 
z
" clip-path="url(#p63337aed5f)" style="fill: #1f77b4"/>
   </g>
   <g id="patch_7">
    <path d="M 93.892028 388.8 
L 99.692308 388.8 
L 99.692308 367.00246 
L 93.892028 367.00246 
z
" clip-path="url(#p63337aed5f)" style="fill: #1f77b4"/>
   </g>
   <g id="patch_8">
    <path d="M 99.692308 388.8 
L 105.492587 388.8 
L 105.492587 369.182214 
L 99.692308 369.182214 
z
" clip-path="url(#p63337aed5f)" style="fill: #1f77b4"/>
   </g>
   <g id="patch_9">
    <path d="M 105.492587 388.8 
L 111.292867 388.8 
L 111.292867 380.080984 
L 105.492587 380.080984 
z
" clip-path="url(#p63337aed5f)" style="fill: #1f77b4"/>
   </g>
   <g id="patch_10">
    <path d="M 111.292867 388.8 
L 117.093147 388.8 
L 117.093147 373.541722 
L 111.292867 373.541722 
z
" clip-path="url(#p63337aed5f)" style="fill: #1f77b4"/>
   </g>
   <g id="patch_11">
    <path d="M 117.093147 388.8 
L 122.893427 388.8 
L 122.893427 373.541722 
L 117.093147 373.541722 
z
" clip-path="url(#p63337aed5f)" style="fill: #1f77b4"/>
   </g>
   <g id="patch_12">
    <path d="M 122.893427 388.8 
L 128.693706 388.8 
L 128.693706 371.361968 
L 122.893427 371.361968 
z
" clip-path="url(#p63337aed5f)" style="fill: #1f77b4"/>
   </g>
   <g id="patch_13">
    <path d="M 128.693706 388.8 
L 134.493986 388.8 
L 134.493986 386.620246 
L 128.693706 386.620246 
z
" clip-path="url(#p63337aed5f)" style="fill: #1f77b4"/>
   </g>
   <g id="patch_14">
    <path d="M 134.493986 388.8 
L 140.294266 388.8 
L 140.294266 369.182214 
L 134.493986 369.182214 
z
" clip-path="url(#p63337aed5f)" style="fill: #1f77b4"/>
   </g>
   <g id="patch_15">
    <path d="M 140.294266 388.8 
L 146.094545 388.8 
L 146.094545 382.260738 
L 140.294266 382.260738 
z
" clip-path="url(#p63337aed5f)" style="fill: #1f77b4"/>
   </g>
   <g id="patch_16">
    <path d="M 146.094545 388.8 
L 151.894825 388.8 
L 151.894825 386.620246 
L 146.094545 386.620246 
z
" clip-path="url(#p63337aed5f)" style="fill: #1f77b4"/>
   </g>
   <g id="patch_17">
    <path d="M 151.894825 388.8 
L 157.695105 388.8 
L 157.695105 380.080984 
L 151.894825 380.080984 
z
" clip-path="url(#p63337aed5f)" style="fill: #1f77b4"/>
   </g>
   <g id="patch_18">
    <path d="M 157.695105 388.8 
L 163.495385 388.8 
L 163.495385 384.440492 
L 157.695105 384.440492 
z
" clip-path="url(#p63337aed5f)" style="fill: #1f77b4"/>
   </g>
   <g id="patch_19">
    <path d="M 163.495385 388.8 
L 169.295664 388.8 
L 169.295664 382.260738 
L 163.495385 382.260738 
z
" clip-path="url(#p63337aed5f)" style="fill: #1f77b4"/>
   </g>
   <g id="patch_20">
    <path d="M 169.295664 388.8 
L 175.095944 388.8 
L 175.095944 384.440492 
L 169.295664 384.440492 
z
" clip-path="url(#p63337aed5f)" style="fill: #1f77b4"/>
   </g>
   <g id="patch_21">
    <path d="M 175.095944 388.8 
L 180.896224 388.8 
L 180.896224 377.90123 
L 175.095944 377.90123 
z
" clip-path="url(#p63337aed5f)" style="fill: #1f77b4"/>
   </g>
   <g id="patch_22">
    <path d="M 180.896224 388.8 
L 186.696503 388.8 
L 186.696503 377.90123 
L 180.896224 377.90123 
z
" clip-path="url(#p63337aed5f)" style="fill: #1f77b4"/>
   </g>
   <g id="patch_23">
    <path d="M 186.696503 388.8 
L 192.496783 388.8 
L 192.496783 382.260738 
L 186.696503 382.260738 
z
" clip-path="url(#p63337aed5f)" style="fill: #1f77b4"/>
   </g>
   <g id="patch_24">
    <path d="M 192.496783 388.8 
L 198.297063 388.8 
L 198.297063 386.620246 
L 192.496783 386.620246 
z
" clip-path="url(#p63337aed5f)" style="fill: #1f77b4"/>
   </g>
   <g id="patch_25">
    <path d="M 198.297063 388.8 
L 204.097343 388.8 
L 204.097343 377.90123 
L 198.297063 377.90123 
z
" clip-path="url(#p63337aed5f)" style="fill: #1f77b4"/>
   </g>
   <g id="patch_26">
    <path d="M 204.097343 388.8 
L 209.897622 388.8 
L 209.897622 388.8 
L 204.097343 388.8 
z
" clip-path="url(#p63337aed5f)" style="fill: #1f77b4"/>
   </g>
   <g id="patch_27">
    <path d="M 209.897622 388.8 
L 215.697902 388.8 
L 215.697902 386.620246 
L 209.897622 386.620246 
z
" clip-path="url(#p63337aed5f)" style="fill: #1f77b4"/>
   </g>
   <g id="patch_28">
    <path d="M 215.697902 388.8 
L 221.498182 388.8 
L 221.498182 382.260738 
L 215.697902 382.260738 
z
" clip-path="url(#p63337aed5f)" style="fill: #1f77b4"/>
   </g>
   <g id="patch_29">
    <path d="M 221.498182 388.8 
L 227.298462 388.8 
L 227.298462 388.8 
L 221.498182 388.8 
z
" clip-path="url(#p63337aed5f)" style="fill: #1f77b4"/>
   </g>
   <g id="patch_30">
    <path d="M 227.298462 388.8 
L 233.098741 388.8 
L 233.098741 386.620246 
L 227.298462 386.620246 
z
" clip-path="url(#p63337aed5f)" style="fill: #1f77b4"/>
   </g>
   <g id="patch_31">
    <path d="M 233.098741 388.8 
L 238.899021 388.8 
L 238.899021 380.080984 
L 233.098741 380.080984 
z
" clip-path="url(#p63337aed5f)" style="fill: #1f77b4"/>
   </g>
   <g id="patch_32">
    <path d="M 238.899021 388.8 
L 244.699301 388.8 
L 244.699301 384.440492 
L 238.899021 384.440492 
z
" clip-path="url(#p63337aed5f)" style="fill: #1f77b4"/>
   </g>
   <g id="patch_33">
    <path d="M 244.699301 388.8 
L 250.49958 388.8 
L 250.49958 384.440492 
L 244.699301 384.440492 
z
" clip-path="url(#p63337aed5f)" style="fill: #1f77b4"/>
   </g>
   <g id="patch_34">
    <path d="M 250.49958 388.8 
L 256.29986 388.8 
L 256.29986 384.440492 
L 250.49958 384.440492 
z
" clip-path="url(#p63337aed5f)" style="fill: #1f77b4"/>
   </g>
   <g id="patch_35">
    <path d="M 256.29986 388.8 
L 262.10014 388.8 
L 262.10014 388.8 
L 256.29986 388.8 
z
" clip-path="url(#p63337aed5f)" style="fill: #1f77b4"/>
   </g>
   <g id="patch_36">
    <path d="M 262.10014 388.8 
L 267.90042 388.8 
L 267.90042 388.8 
L 262.10014 388.8 
z
" clip-path="url(#p63337aed5f)" style="fill: #1f77b4"/>
   </g>
   <g id="patch_37">
    <path d="M 267.90042 388.8 
L 273.700699 388.8 
L 273.700699 386.620246 
L 267.90042 386.620246 
z
" clip-path="url(#p63337aed5f)" style="fill: #1f77b4"/>
   </g>
   <g id="patch_38">
    <path d="M 273.700699 388.8 
L 279.500979 388.8 
L 279.500979 386.620246 
L 273.700699 386.620246 
z
" clip-path="url(#p63337aed5f)" style="fill: #1f77b4"/>
   </g>
   <g id="patch_39">
    <path d="M 279.500979 388.8 
L 285.301259 388.8 
L 285.301259 386.620246 
L 279.500979 386.620246 
z
" clip-path="url(#p63337aed5f)" style="fill: #1f77b4"/>
   </g>
   <g id="patch_40">
    <path d="M 285.301259 388.8 
L 291.101538 388.8 
L 291.101538 388.8 
L 285.301259 388.8 
z
" clip-path="url(#p63337aed5f)" style="fill: #1f77b4"/>
   </g>
   <g id="patch_41">
    <path d="M 291.101538 388.8 
L 296.901818 388.8 
L 296.901818 386.620246 
L 291.101538 386.620246 
z
" clip-path="url(#p63337aed5f)" style="fill: #1f77b4"/>
   </g>
   <g id="patch_42">
    <path d="M 296.901818 388.8 
L 302.702098 388.8 
L 302.702098 377.90123 
L 296.901818 377.90123 
z
" clip-path="url(#p63337aed5f)" style="fill: #1f77b4"/>
   </g>
   <g id="patch_43">
    <path d="M 302.702098 388.8 
L 308.502378 388.8 
L 308.502378 384.440492 
L 302.702098 384.440492 
z
" clip-path="url(#p63337aed5f)" style="fill: #1f77b4"/>
   </g>
   <g id="patch_44">
    <path d="M 308.502378 388.8 
L 314.302657 388.8 
L 314.302657 382.260738 
L 308.502378 382.260738 
z
" clip-path="url(#p63337aed5f)" style="fill: #1f77b4"/>
   </g>
   <g id="patch_45">
    <path d="M 314.302657 388.8 
L 320.102937 388.8 
L 320.102937 386.620246 
L 314.302657 386.620246 
z
" clip-path="url(#p63337aed5f)" style="fill: #1f77b4"/>
   </g>
   <g id="patch_46">
    <path d="M 320.102937 388.8 
L 325.903217 388.8 
L 325.903217 382.260738 
L 320.102937 382.260738 
z
" clip-path="url(#p63337aed5f)" style="fill: #1f77b4"/>
   </g>
   <g id="patch_47">
    <path d="M 325.903217 388.8 
L 331.703497 388.8 
L 331.703497 386.620246 
L 325.903217 386.620246 
z
" clip-path="url(#p63337aed5f)" style="fill: #1f77b4"/>
   </g>
   <g id="patch_48">
    <path d="M 331.703497 388.8 
L 337.503776 388.8 
L 337.503776 384.440492 
L 331.703497 384.440492 
z
" clip-path="url(#p63337aed5f)" style="fill: #1f77b4"/>
   </g>
   <g id="patch_49">
    <path d="M 337.503776 388.8 
L 343.304056 388.8 
L 343.304056 386.620246 
L 337.503776 386.620246 
z
" clip-path="url(#p63337aed5f)" style="fill: #1f77b4"/>
   </g>
   <g id="patch_50">
    <path d="M 343.304056 388.8 
L 349.104336 388.8 
L 349.104336 382.260738 
L 343.304056 382.260738 
z
" clip-path="url(#p63337aed5f)" style="fill: #1f77b4"/>
   </g>
   <g id="patch_51">
    <path d="M 349.104336 388.8 
L 354.904615 388.8 
L 354.904615 384.440492 
L 349.104336 384.440492 
z
" clip-path="url(#p63337aed5f)" style="fill: #1f77b4"/>
   </g>
   <g id="patch_52">
    <path d="M 354.904615 388.8 
L 360.704895 388.8 
L 360.704895 388.8 
L 354.904615 388.8 
z
" clip-path="url(#p63337aed5f)" style="fill: #1f77b4"/>
   </g>
   <g id="patch_53">
    <path d="M 360.704895 388.8 
L 366.505175 388.8 
L 366.505175 384.440492 
L 360.704895 384.440492 
z
" clip-path="url(#p63337aed5f)" style="fill: #1f77b4"/>
   </g>
   <g id="patch_54">
    <path d="M 366.505175 388.8 
L 372.305455 388.8 
L 372.305455 382.260738 
L 366.505175 382.260738 
z
" clip-path="url(#p63337aed5f)" style="fill: #1f77b4"/>
   </g>
   <g id="patch_55">
    <path d="M 372.305455 388.8 
L 378.105734 388.8 
L 378.105734 384.440492 
L 372.305455 384.440492 
z
" clip-path="url(#p63337aed5f)" style="fill: #1f77b4"/>
   </g>
   <g id="patch_56">
    <path d="M 378.105734 388.8 
L 383.906014 388.8 
L 383.906014 382.260738 
L 378.105734 382.260738 
z
" clip-path="url(#p63337aed5f)" style="fill: #1f77b4"/>
   </g>
   <g id="patch_57">
    <path d="M 383.906014 388.8 
L 389.706294 388.8 
L 389.706294 386.620246 
L 383.906014 386.620246 
z
" clip-path="url(#p63337aed5f)" style="fill: #1f77b4"/>
   </g>
   <g id="patch_58">
    <path d="M 389.706294 388.8 
L 395.506573 388.8 
L 395.506573 384.440492 
L 389.706294 384.440492 
z
" clip-path="url(#p63337aed5f)" style="fill: #1f77b4"/>
   </g>
   <g id="patch_59">
    <path d="M 395.506573 388.8 
L 401.306853 388.8 
L 401.306853 384.440492 
L 395.506573 384.440492 
z
" clip-path="url(#p63337aed5f)" style="fill: #1f77b4"/>
   </g>
   <g id="patch_60">
    <path d="M 401.306853 388.8 
L 407.107133 388.8 
L 407.107133 382.260738 
L 401.306853 382.260738 
z
" clip-path="url(#p63337aed5f)" style="fill: #1f77b4"/>
   </g>
   <g id="patch_61">
    <path d="M 407.107133 388.8 
L 412.907413 388.8 
L 412.907413 377.90123 
L 407.107133 377.90123 
z
" clip-path="url(#p63337aed5f)" style="fill: #1f77b4"/>
   </g>
   <g id="patch_62">
    <path d="M 412.907413 388.8 
L 418.707692 388.8 
L 418.707692 373.541722 
L 412.907413 373.541722 
z
" clip-path="url(#p63337aed5f)" style="fill: #1f77b4"/>
   </g>
   <g id="patch_63">
    <path d="M 418.707692 388.8 
L 424.507972 388.8 
L 424.507972 367.00246 
L 418.707692 367.00246 
z
" clip-path="url(#p63337aed5f)" style="fill: #1f77b4"/>
   </g>
   <g id="patch_64">
    <path d="M 424.507972 388.8 
L 430.308252 388.8 
L 430.308252 362.642952 
L 424.507972 362.642952 
z
" clip-path="url(#p63337aed5f)" style="fill: #1f77b4"/>
   </g>
   <g id="patch_65">
    <path d="M 430.308252 388.8 
L 436.108531 388.8 
L 436.108531 338.665658 
L 430.308252 338.665658 
z
" clip-path="url(#p63337aed5f)" style="fill: #1f77b4"/>
   </g>
   <g id="patch_66">
    <path d="M 436.108531 388.8 
L 441.908811 388.8 
L 441.908811 290.711069 
L 436.108531 290.711069 
z
" clip-path="url(#p63337aed5f)" style="fill: #1f77b4"/>
   </g>
   <g id="patch_67">
    <path d="M 441.908811 388.8 
L 447.709091 388.8 
L 447.709091 144.66755 
L 441.908811 144.66755 
z
" clip-path="url(#p63337aed5f)" style="fill: #1f77b4"/>
   </g>
   <g id="matplotlib.axis_1">
    <g id="xtick_1">
     <g id="line2d_1">
      <defs>
       <path id="mc6aa11196f" d="M 0 0 
L 0 3.5 
" style="stroke: #000000; stroke-width: 0.8"/>
      </defs>
      <g>
       <use xlink:href="#mc6aa11196f" x="64.8" y="388.8" style="stroke: #000000; stroke-width: 0.8"/>
      </g>
     </g>
     <g id="text_1">
      <!-- 0 -->
      <g transform="translate(59.07375 409.477188) scale(0.18 -0.18)">
       <defs>
        <path id="DejaVuSans-30" d="M 2034 4250 
Q 1547 4250 1301 3770 
Q 1056 3291 1056 2328 
Q 1056 1369 1301 889 
Q 1547 409 2034 409 
Q 2525 409 2770 889 
Q 3016 1369 3016 2328 
Q 3016 3291 2770 3770 
Q 2525 4250 2034 4250 
z
M 2034 4750 
Q 2819 4750 3233 4129 
Q 3647 3509 3647 2328 
Q 3647 1150 3233 529 
Q 2819 -91 2034 -91 
Q 1250 -91 836 529 
Q 422 1150 422 2328 
Q 422 3509 836 4129 
Q 1250 4750 2034 4750 
z
" transform="scale(0.015625)"/>
       </defs>
       <use xlink:href="#DejaVuSans-30"/>
      </g>
     </g>
    </g>
    <g id="xtick_2">
     <g id="line2d_2">
      <g>
       <use xlink:href="#mc6aa11196f" x="182.618182" y="388.8" style="stroke: #000000; stroke-width: 0.8"/>
      </g>
     </g>
     <g id="text_2">
      <!-- 20 -->
      <g transform="translate(171.165682 409.477188) scale(0.18 -0.18)">
       <defs>
        <path id="DejaVuSans-32" d="M 1228 531 
L 3431 531 
L 3431 0 
L 469 0 
L 469 531 
Q 828 903 1448 1529 
Q 2069 2156 2228 2338 
Q 2531 2678 2651 2914 
Q 2772 3150 2772 3378 
Q 2772 3750 2511 3984 
Q 2250 4219 1831 4219 
Q 1534 4219 1204 4116 
Q 875 4013 500 3803 
L 500 4441 
Q 881 4594 1212 4672 
Q 1544 4750 1819 4750 
Q 2544 4750 2975 4387 
Q 3406 4025 3406 3419 
Q 3406 3131 3298 2873 
Q 3191 2616 2906 2266 
Q 2828 2175 2409 1742 
Q 1991 1309 1228 531 
z
" transform="scale(0.015625)"/>
       </defs>
       <use xlink:href="#DejaVuSans-32"/>
       <use xlink:href="#DejaVuSans-30" x="63.623047"/>
      </g>
     </g>
    </g>
    <g id="xtick_3">
     <g id="line2d_3">
      <g>
       <use xlink:href="#mc6aa11196f" x="300.436364" y="388.8" style="stroke: #000000; stroke-width: 0.8"/>
      </g>
     </g>
     <g id="text_3">
      <!-- 40 -->
      <g transform="translate(288.983864 409.477188) scale(0.18 -0.18)">
       <defs>
        <path id="DejaVuSans-34" d="M 2419 4116 
L 825 1625 
L 2419 1625 
L 2419 4116 
z
M 2253 4666 
L 3047 4666 
L 3047 1625 
L 3713 1625 
L 3713 1100 
L 3047 1100 
L 3047 0 
L 2419 0 
L 2419 1100 
L 313 1100 
L 313 1709 
L 2253 4666 
z
" transform="scale(0.015625)"/>
       </defs>
       <use xlink:href="#DejaVuSans-34"/>
       <use xlink:href="#DejaVuSans-30" x="63.623047"/>
      </g>
     </g>
    </g>
    <g id="xtick_4">
     <g id="line2d_4">
      <g>
       <use xlink:href="#mc6aa11196f" x="418.254545" y="388.8" style="stroke: #000000; stroke-width: 0.8"/>
      </g>
     </g>
     <g id="text_4">
      <!-- 60 -->
      <g transform="translate(406.802045 409.477188) scale(0.18 -0.18)">
       <defs>
        <path id="DejaVuSans-36" d="M 2113 2584 
Q 1688 2584 1439 2293 
Q 1191 2003 1191 1497 
Q 1191 994 1439 701 
Q 1688 409 2113 409 
Q 2538 409 2786 701 
Q 3034 994 3034 1497 
Q 3034 2003 2786 2293 
Q 2538 2584 2113 2584 
z
M 3366 4563 
L 3366 3988 
Q 3128 4100 2886 4159 
Q 2644 4219 2406 4219 
Q 1781 4219 1451 3797 
Q 1122 3375 1075 2522 
Q 1259 2794 1537 2939 
Q 1816 3084 2150 3084 
Q 2853 3084 3261 2657 
Q 3669 2231 3669 1497 
Q 3669 778 3244 343 
Q 2819 -91 2113 -91 
Q 1303 -91 875 529 
Q 447 1150 447 2328 
Q 447 3434 972 4092 
Q 1497 4750 2381 4750 
Q 2619 4750 2861 4703 
Q 3103 4656 3366 4563 
z
" transform="scale(0.015625)"/>
       </defs>
       <use xlink:href="#DejaVuSans-36"/>
       <use xlink:href="#DejaVuSans-30" x="63.623047"/>
      </g>
     </g>
    </g>
    <g id="text_5">
     <!-- Number of models using gene (excluding 0) -->
     <g transform="translate(61.609219 430.897812) scale(0.18 -0.18)">
      <defs>
       <path id="DejaVuSans-4e" d="M 628 4666 
L 1478 4666 
L 3547 763 
L 3547 4666 
L 4159 4666 
L 4159 0 
L 3309 0 
L 1241 3903 
L 1241 0 
L 628 0 
L 628 4666 
z
" transform="scale(0.015625)"/>
       <path id="DejaVuSans-75" d="M 544 1381 
L 544 3500 
L 1119 3500 
L 1119 1403 
Q 1119 906 1312 657 
Q 1506 409 1894 409 
Q 2359 409 2629 706 
Q 2900 1003 2900 1516 
L 2900 3500 
L 3475 3500 
L 3475 0 
L 2900 0 
L 2900 538 
Q 2691 219 2414 64 
Q 2138 -91 1772 -91 
Q 1169 -91 856 284 
Q 544 659 544 1381 
z
M 1991 3584 
L 1991 3584 
z
" transform="scale(0.015625)"/>
       <path id="DejaVuSans-6d" d="M 3328 2828 
Q 3544 3216 3844 3400 
Q 4144 3584 4550 3584 
Q 5097 3584 5394 3201 
Q 5691 2819 5691 2113 
L 5691 0 
L 5113 0 
L 5113 2094 
Q 5113 2597 4934 2840 
Q 4756 3084 4391 3084 
Q 3944 3084 3684 2787 
Q 3425 2491 3425 1978 
L 3425 0 
L 2847 0 
L 2847 2094 
Q 2847 2600 2669 2842 
Q 2491 3084 2119 3084 
Q 1678 3084 1418 2786 
Q 1159 2488 1159 1978 
L 1159 0 
L 581 0 
L 581 3500 
L 1159 3500 
L 1159 2956 
Q 1356 3278 1631 3431 
Q 1906 3584 2284 3584 
Q 2666 3584 2933 3390 
Q 3200 3197 3328 2828 
z
" transform="scale(0.015625)"/>
       <path id="DejaVuSans-62" d="M 3116 1747 
Q 3116 2381 2855 2742 
Q 2594 3103 2138 3103 
Q 1681 3103 1420 2742 
Q 1159 2381 1159 1747 
Q 1159 1113 1420 752 
Q 1681 391 2138 391 
Q 2594 391 2855 752 
Q 3116 1113 3116 1747 
z
M 1159 2969 
Q 1341 3281 1617 3432 
Q 1894 3584 2278 3584 
Q 2916 3584 3314 3078 
Q 3713 2572 3713 1747 
Q 3713 922 3314 415 
Q 2916 -91 2278 -91 
Q 1894 -91 1617 61 
Q 1341 213 1159 525 
L 1159 0 
L 581 0 
L 581 4863 
L 1159 4863 
L 1159 2969 
z
" transform="scale(0.015625)"/>
       <path id="DejaVuSans-65" d="M 3597 1894 
L 3597 1613 
L 953 1613 
Q 991 1019 1311 708 
Q 1631 397 2203 397 
Q 2534 397 2845 478 
Q 3156 559 3463 722 
L 3463 178 
Q 3153 47 2828 -22 
Q 2503 -91 2169 -91 
Q 1331 -91 842 396 
Q 353 884 353 1716 
Q 353 2575 817 3079 
Q 1281 3584 2069 3584 
Q 2775 3584 3186 3129 
Q 3597 2675 3597 1894 
z
M 3022 2063 
Q 3016 2534 2758 2815 
Q 2500 3097 2075 3097 
Q 1594 3097 1305 2825 
Q 1016 2553 972 2059 
L 3022 2063 
z
" transform="scale(0.015625)"/>
       <path id="DejaVuSans-72" d="M 2631 2963 
Q 2534 3019 2420 3045 
Q 2306 3072 2169 3072 
Q 1681 3072 1420 2755 
Q 1159 2438 1159 1844 
L 1159 0 
L 581 0 
L 581 3500 
L 1159 3500 
L 1159 2956 
Q 1341 3275 1631 3429 
Q 1922 3584 2338 3584 
Q 2397 3584 2469 3576 
Q 2541 3569 2628 3553 
L 2631 2963 
z
" transform="scale(0.015625)"/>
       <path id="DejaVuSans-20" transform="scale(0.015625)"/>
       <path id="DejaVuSans-6f" d="M 1959 3097 
Q 1497 3097 1228 2736 
Q 959 2375 959 1747 
Q 959 1119 1226 758 
Q 1494 397 1959 397 
Q 2419 397 2687 759 
Q 2956 1122 2956 1747 
Q 2956 2369 2687 2733 
Q 2419 3097 1959 3097 
z
M 1959 3584 
Q 2709 3584 3137 3096 
Q 3566 2609 3566 1747 
Q 3566 888 3137 398 
Q 2709 -91 1959 -91 
Q 1206 -91 779 398 
Q 353 888 353 1747 
Q 353 2609 779 3096 
Q 1206 3584 1959 3584 
z
" transform="scale(0.015625)"/>
       <path id="DejaVuSans-66" d="M 2375 4863 
L 2375 4384 
L 1825 4384 
Q 1516 4384 1395 4259 
Q 1275 4134 1275 3809 
L 1275 3500 
L 2222 3500 
L 2222 3053 
L 1275 3053 
L 1275 0 
L 697 0 
L 697 3053 
L 147 3053 
L 147 3500 
L 697 3500 
L 697 3744 
Q 697 4328 969 4595 
Q 1241 4863 1831 4863 
L 2375 4863 
z
" transform="scale(0.015625)"/>
       <path id="DejaVuSans-64" d="M 2906 2969 
L 2906 4863 
L 3481 4863 
L 3481 0 
L 2906 0 
L 2906 525 
Q 2725 213 2448 61 
Q 2172 -91 1784 -91 
Q 1150 -91 751 415 
Q 353 922 353 1747 
Q 353 2572 751 3078 
Q 1150 3584 1784 3584 
Q 2172 3584 2448 3432 
Q 2725 3281 2906 2969 
z
M 947 1747 
Q 947 1113 1208 752 
Q 1469 391 1925 391 
Q 2381 391 2643 752 
Q 2906 1113 2906 1747 
Q 2906 2381 2643 2742 
Q 2381 3103 1925 3103 
Q 1469 3103 1208 2742 
Q 947 2381 947 1747 
z
" transform="scale(0.015625)"/>
       <path id="DejaVuSans-6c" d="M 603 4863 
L 1178 4863 
L 1178 0 
L 603 0 
L 603 4863 
z
" transform="scale(0.015625)"/>
       <path id="DejaVuSans-73" d="M 2834 3397 
L 2834 2853 
Q 2591 2978 2328 3040 
Q 2066 3103 1784 3103 
Q 1356 3103 1142 2972 
Q 928 2841 928 2578 
Q 928 2378 1081 2264 
Q 1234 2150 1697 2047 
L 1894 2003 
Q 2506 1872 2764 1633 
Q 3022 1394 3022 966 
Q 3022 478 2636 193 
Q 2250 -91 1575 -91 
Q 1294 -91 989 -36 
Q 684 19 347 128 
L 347 722 
Q 666 556 975 473 
Q 1284 391 1588 391 
Q 1994 391 2212 530 
Q 2431 669 2431 922 
Q 2431 1156 2273 1281 
Q 2116 1406 1581 1522 
L 1381 1569 
Q 847 1681 609 1914 
Q 372 2147 372 2553 
Q 372 3047 722 3315 
Q 1072 3584 1716 3584 
Q 2034 3584 2315 3537 
Q 2597 3491 2834 3397 
z
" transform="scale(0.015625)"/>
       <path id="DejaVuSans-69" d="M 603 3500 
L 1178 3500 
L 1178 0 
L 603 0 
L 603 3500 
z
M 603 4863 
L 1178 4863 
L 1178 4134 
L 603 4134 
L 603 4863 
z
" transform="scale(0.015625)"/>
       <path id="DejaVuSans-6e" d="M 3513 2113 
L 3513 0 
L 2938 0 
L 2938 2094 
Q 2938 2591 2744 2837 
Q 2550 3084 2163 3084 
Q 1697 3084 1428 2787 
Q 1159 2491 1159 1978 
L 1159 0 
L 581 0 
L 581 3500 
L 1159 3500 
L 1159 2956 
Q 1366 3272 1645 3428 
Q 1925 3584 2291 3584 
Q 2894 3584 3203 3211 
Q 3513 2838 3513 2113 
z
" transform="scale(0.015625)"/>
       <path id="DejaVuSans-67" d="M 2906 1791 
Q 2906 2416 2648 2759 
Q 2391 3103 1925 3103 
Q 1463 3103 1205 2759 
Q 947 2416 947 1791 
Q 947 1169 1205 825 
Q 1463 481 1925 481 
Q 2391 481 2648 825 
Q 2906 1169 2906 1791 
z
M 3481 434 
Q 3481 -459 3084 -895 
Q 2688 -1331 1869 -1331 
Q 1566 -1331 1297 -1286 
Q 1028 -1241 775 -1147 
L 775 -588 
Q 1028 -725 1275 -790 
Q 1522 -856 1778 -856 
Q 2344 -856 2625 -561 
Q 2906 -266 2906 331 
L 2906 616 
Q 2728 306 2450 153 
Q 2172 0 1784 0 
Q 1141 0 747 490 
Q 353 981 353 1791 
Q 353 2603 747 3093 
Q 1141 3584 1784 3584 
Q 2172 3584 2450 3431 
Q 2728 3278 2906 2969 
L 2906 3500 
L 3481 3500 
L 3481 434 
z
" transform="scale(0.015625)"/>
       <path id="DejaVuSans-28" d="M 1984 4856 
Q 1566 4138 1362 3434 
Q 1159 2731 1159 2009 
Q 1159 1288 1364 580 
Q 1569 -128 1984 -844 
L 1484 -844 
Q 1016 -109 783 600 
Q 550 1309 550 2009 
Q 550 2706 781 3412 
Q 1013 4119 1484 4856 
L 1984 4856 
z
" transform="scale(0.015625)"/>
       <path id="DejaVuSans-78" d="M 3513 3500 
L 2247 1797 
L 3578 0 
L 2900 0 
L 1881 1375 
L 863 0 
L 184 0 
L 1544 1831 
L 300 3500 
L 978 3500 
L 1906 2253 
L 2834 3500 
L 3513 3500 
z
" transform="scale(0.015625)"/>
       <path id="DejaVuSans-63" d="M 3122 3366 
L 3122 2828 
Q 2878 2963 2633 3030 
Q 2388 3097 2138 3097 
Q 1578 3097 1268 2742 
Q 959 2388 959 1747 
Q 959 1106 1268 751 
Q 1578 397 2138 397 
Q 2388 397 2633 464 
Q 2878 531 3122 666 
L 3122 134 
Q 2881 22 2623 -34 
Q 2366 -91 2075 -91 
Q 1284 -91 818 406 
Q 353 903 353 1747 
Q 353 2603 823 3093 
Q 1294 3584 2113 3584 
Q 2378 3584 2631 3529 
Q 2884 3475 3122 3366 
z
" transform="scale(0.015625)"/>
       <path id="DejaVuSans-29" d="M 513 4856 
L 1013 4856 
Q 1481 4119 1714 3412 
Q 1947 2706 1947 2009 
Q 1947 1309 1714 600 
Q 1481 -109 1013 -844 
L 513 -844 
Q 928 -128 1133 580 
Q 1338 1288 1338 2009 
Q 1338 2731 1133 3434 
Q 928 4138 513 4856 
z
" transform="scale(0.015625)"/>
      </defs>
      <use xlink:href="#DejaVuSans-4e"/>
      <use xlink:href="#DejaVuSans-75" x="74.804688"/>
      <use xlink:href="#DejaVuSans-6d" x="138.183594"/>
      <use xlink:href="#DejaVuSans-62" x="235.595703"/>
      <use xlink:href="#DejaVuSans-65" x="299.072266"/>
      <use xlink:href="#DejaVuSans-72" x="360.595703"/>
      <use xlink:href="#DejaVuSans-20" x="401.708984"/>
      <use xlink:href="#DejaVuSans-6f" x="433.496094"/>
      <use xlink:href="#DejaVuSans-66" x="494.677734"/>
      <use xlink:href="#DejaVuSans-20" x="529.882812"/>
      <use xlink:href="#DejaVuSans-6d" x="561.669922"/>
      <use xlink:href="#DejaVuSans-6f" x="659.082031"/>
      <use xlink:href="#DejaVuSans-64" x="720.263672"/>
      <use xlink:href="#DejaVuSans-65" x="783.740234"/>
      <use xlink:href="#DejaVuSans-6c" x="845.263672"/>
      <use xlink:href="#DejaVuSans-73" x="873.046875"/>
      <use xlink:href="#DejaVuSans-20" x="925.146484"/>
      <use xlink:href="#DejaVuSans-75" x="956.933594"/>
      <use xlink:href="#DejaVuSans-73" x="1020.3125"/>
      <use xlink:href="#DejaVuSans-69" x="1072.412109"/>
      <use xlink:href="#DejaVuSans-6e" x="1100.195312"/>
      <use xlink:href="#DejaVuSans-67" x="1163.574219"/>
      <use xlink:href="#DejaVuSans-20" x="1227.050781"/>
      <use xlink:href="#DejaVuSans-67" x="1258.837891"/>
      <use xlink:href="#DejaVuSans-65" x="1322.314453"/>
      <use xlink:href="#DejaVuSans-6e" x="1383.837891"/>
      <use xlink:href="#DejaVuSans-65" x="1447.216797"/>
      <use xlink:href="#DejaVuSans-20" x="1508.740234"/>
      <use xlink:href="#DejaVuSans-28" x="1540.527344"/>
      <use xlink:href="#DejaVuSans-65" x="1579.541016"/>
      <use xlink:href="#DejaVuSans-78" x="1639.314453"/>
      <use xlink:href="#DejaVuSans-63" x="1696.744141"/>
      <use xlink:href="#DejaVuSans-6c" x="1751.724609"/>
      <use xlink:href="#DejaVuSans-75" x="1779.507812"/>
      <use xlink:href="#DejaVuSans-64" x="1842.886719"/>
      <use xlink:href="#DejaVuSans-69" x="1906.363281"/>
      <use xlink:href="#DejaVuSans-6e" x="1934.146484"/>
      <use xlink:href="#DejaVuSans-67" x="1997.525391"/>
      <use xlink:href="#DejaVuSans-20" x="2061.001953"/>
      <use xlink:href="#DejaVuSans-30" x="2092.789062"/>
      <use xlink:href="#DejaVuSans-29" x="2156.412109"/>
     </g>
    </g>
   </g>
   <g id="matplotlib.axis_2">
    <g id="ytick_1">
     <g id="line2d_5">
      <defs>
       <path id="m629125aed3" d="M 0 0 
L -3.5 0 
" style="stroke: #000000; stroke-width: 0.8"/>
      </defs>
      <g>
       <use xlink:href="#m629125aed3" x="51.84" y="388.8" style="stroke: #000000; stroke-width: 0.8"/>
      </g>
     </g>
     <g id="text_6">
      <!-- 0 -->
      <g transform="translate(33.3875 395.638594) scale(0.18 -0.18)">
       <use xlink:href="#DejaVuSans-30"/>
      </g>
     </g>
    </g>
    <g id="ytick_2">
     <g id="line2d_6">
      <g>
       <use xlink:href="#m629125aed3" x="51.84" y="345.20492" style="stroke: #000000; stroke-width: 0.8"/>
      </g>
     </g>
     <g id="text_7">
      <!-- 20 -->
      <g transform="translate(21.935 352.043513) scale(0.18 -0.18)">
       <use xlink:href="#DejaVuSans-32"/>
       <use xlink:href="#DejaVuSans-30" x="63.623047"/>
      </g>
     </g>
    </g>
    <g id="ytick_3">
     <g id="line2d_7">
      <g>
       <use xlink:href="#m629125aed3" x="51.84" y="301.609839" style="stroke: #000000; stroke-width: 0.8"/>
      </g>
     </g>
     <g id="text_8">
      <!-- 40 -->
      <g transform="translate(21.935 308.448433) scale(0.18 -0.18)">
       <use xlink:href="#DejaVuSans-34"/>
       <use xlink:href="#DejaVuSans-30" x="63.623047"/>
      </g>
     </g>
    </g>
    <g id="ytick_4">
     <g id="line2d_8">
      <g>
       <use xlink:href="#m629125aed3" x="51.84" y="258.014759" style="stroke: #000000; stroke-width: 0.8"/>
      </g>
     </g>
     <g id="text_9">
      <!-- 60 -->
      <g transform="translate(21.935 264.853353) scale(0.18 -0.18)">
       <use xlink:href="#DejaVuSans-36"/>
       <use xlink:href="#DejaVuSans-30" x="63.623047"/>
      </g>
     </g>
    </g>
    <g id="ytick_5">
     <g id="line2d_9">
      <g>
       <use xlink:href="#m629125aed3" x="51.84" y="214.419678" style="stroke: #000000; stroke-width: 0.8"/>
      </g>
     </g>
     <g id="text_10">
      <!-- 80 -->
      <g transform="translate(21.935 221.258272) scale(0.18 -0.18)">
       <defs>
        <path id="DejaVuSans-38" d="M 2034 2216 
Q 1584 2216 1326 1975 
Q 1069 1734 1069 1313 
Q 1069 891 1326 650 
Q 1584 409 2034 409 
Q 2484 409 2743 651 
Q 3003 894 3003 1313 
Q 3003 1734 2745 1975 
Q 2488 2216 2034 2216 
z
M 1403 2484 
Q 997 2584 770 2862 
Q 544 3141 544 3541 
Q 544 4100 942 4425 
Q 1341 4750 2034 4750 
Q 2731 4750 3128 4425 
Q 3525 4100 3525 3541 
Q 3525 3141 3298 2862 
Q 3072 2584 2669 2484 
Q 3125 2378 3379 2068 
Q 3634 1759 3634 1313 
Q 3634 634 3220 271 
Q 2806 -91 2034 -91 
Q 1263 -91 848 271 
Q 434 634 434 1313 
Q 434 1759 690 2068 
Q 947 2378 1403 2484 
z
M 1172 3481 
Q 1172 3119 1398 2916 
Q 1625 2713 2034 2713 
Q 2441 2713 2670 2916 
Q 2900 3119 2900 3481 
Q 2900 3844 2670 4047 
Q 2441 4250 2034 4250 
Q 1625 4250 1398 4047 
Q 1172 3844 1172 3481 
z
" transform="scale(0.015625)"/>
       </defs>
       <use xlink:href="#DejaVuSans-38"/>
       <use xlink:href="#DejaVuSans-30" x="63.623047"/>
      </g>
     </g>
    </g>
    <g id="ytick_6">
     <g id="line2d_10">
      <g>
       <use xlink:href="#m629125aed3" x="51.84" y="170.824598" style="stroke: #000000; stroke-width: 0.8"/>
      </g>
     </g>
     <g id="text_11">
      <!-- 100 -->
      <g transform="translate(10.4825 177.663192) scale(0.18 -0.18)">
       <defs>
        <path id="DejaVuSans-31" d="M 794 531 
L 1825 531 
L 1825 4091 
L 703 3866 
L 703 4441 
L 1819 4666 
L 2450 4666 
L 2450 531 
L 3481 531 
L 3481 0 
L 794 0 
L 794 531 
z
" transform="scale(0.015625)"/>
       </defs>
       <use xlink:href="#DejaVuSans-31"/>
       <use xlink:href="#DejaVuSans-30" x="63.623047"/>
       <use xlink:href="#DejaVuSans-30" x="127.246094"/>
      </g>
     </g>
    </g>
    <g id="ytick_7">
     <g id="line2d_11">
      <g>
       <use xlink:href="#m629125aed3" x="51.84" y="127.229518" style="stroke: #000000; stroke-width: 0.8"/>
      </g>
     </g>
     <g id="text_12">
      <!-- 120 -->
      <g transform="translate(10.4825 134.068111) scale(0.18 -0.18)">
       <use xlink:href="#DejaVuSans-31"/>
       <use xlink:href="#DejaVuSans-32" x="63.623047"/>
       <use xlink:href="#DejaVuSans-30" x="127.246094"/>
      </g>
     </g>
    </g>
    <g id="ytick_8">
     <g id="line2d_12">
      <g>
       <use xlink:href="#m629125aed3" x="51.84" y="83.634437" style="stroke: #000000; stroke-width: 0.8"/>
      </g>
     </g>
     <g id="text_13">
      <!-- 140 -->
      <g transform="translate(10.4825 90.473031) scale(0.18 -0.18)">
       <use xlink:href="#DejaVuSans-31"/>
       <use xlink:href="#DejaVuSans-34" x="63.623047"/>
       <use xlink:href="#DejaVuSans-30" x="127.246094"/>
      </g>
     </g>
    </g>
    <g id="text_14">
     <!-- Frequency -->
     <g transform="translate(2.739062 262.493438) rotate(-90) scale(0.18 -0.18)">
      <defs>
       <path id="DejaVuSans-46" d="M 628 4666 
L 3309 4666 
L 3309 4134 
L 1259 4134 
L 1259 2759 
L 3109 2759 
L 3109 2228 
L 1259 2228 
L 1259 0 
L 628 0 
L 628 4666 
z
" transform="scale(0.015625)"/>
       <path id="DejaVuSans-71" d="M 947 1747 
Q 947 1113 1208 752 
Q 1469 391 1925 391 
Q 2381 391 2643 752 
Q 2906 1113 2906 1747 
Q 2906 2381 2643 2742 
Q 2381 3103 1925 3103 
Q 1469 3103 1208 2742 
Q 947 2381 947 1747 
z
M 2906 525 
Q 2725 213 2448 61 
Q 2172 -91 1784 -91 
Q 1150 -91 751 415 
Q 353 922 353 1747 
Q 353 2572 751 3078 
Q 1150 3584 1784 3584 
Q 2172 3584 2448 3432 
Q 2725 3281 2906 2969 
L 2906 3500 
L 3481 3500 
L 3481 -1331 
L 2906 -1331 
L 2906 525 
z
" transform="scale(0.015625)"/>
       <path id="DejaVuSans-79" d="M 2059 -325 
Q 1816 -950 1584 -1140 
Q 1353 -1331 966 -1331 
L 506 -1331 
L 506 -850 
L 844 -850 
Q 1081 -850 1212 -737 
Q 1344 -625 1503 -206 
L 1606 56 
L 191 3500 
L 800 3500 
L 1894 763 
L 2988 3500 
L 3597 3500 
L 2059 -325 
z
" transform="scale(0.015625)"/>
      </defs>
      <use xlink:href="#DejaVuSans-46"/>
      <use xlink:href="#DejaVuSans-72" x="50.269531"/>
      <use xlink:href="#DejaVuSans-65" x="89.132812"/>
      <use xlink:href="#DejaVuSans-71" x="150.65625"/>
      <use xlink:href="#DejaVuSans-75" x="214.132812"/>
      <use xlink:href="#DejaVuSans-65" x="277.511719"/>
      <use xlink:href="#DejaVuSans-6e" x="339.035156"/>
      <use xlink:href="#DejaVuSans-63" x="402.414062"/>
      <use xlink:href="#DejaVuSans-79" x="457.394531"/>
     </g>
    </g>
   </g>
   <g id="patch_68">
    <path d="M 51.84 388.8 
L 51.84 43.2 
" style="fill: none; stroke: #000000; stroke-width: 0.8; stroke-linejoin: miter; stroke-linecap: square"/>
   </g>
   <g id="patch_69">
    <path d="M 466.56 388.8 
L 466.56 43.2 
" style="fill: none; stroke: #000000; stroke-width: 0.8; stroke-linejoin: miter; stroke-linecap: square"/>
   </g>
   <g id="patch_70">
    <path d="M 51.84 388.8 
L 466.56 388.8 
" style="fill: none; stroke: #000000; stroke-width: 0.8; stroke-linejoin: miter; stroke-linecap: square"/>
   </g>
   <g id="patch_71">
    <path d="M 51.84 43.2 
L 466.56 43.2 
" style="fill: none; stroke: #000000; stroke-width: 0.8; stroke-linejoin: miter; stroke-linecap: square"/>
   </g>
  </g>
 </g>
 <defs>
  <clipPath id="p63337aed5f">
   <rect x="51.84" y="43.2" width="414.72" height="345.6"/>
  </clipPath>
 </defs>
</svg>
