<svg width="1134" height="796" xmlns="http://www.w3.org/2000/svg" xmlns:xlink="http://www.w3.org/1999/xlink" overflow="hidden"><defs><clipPath id="clip0"><rect x="0" y="0" width="1134" height="796"/></clipPath></defs><g clip-path="url(#clip0)"><rect x="0" y="0" width="1134" height="796.333" fill="#FFFFFF"/><rect x="84" y="112.047" width="77" height="125.052" stroke="#000000" stroke-width="4" stroke-miterlimit="8" fill="#FFC000"/><rect x="84" y="63.0264" width="77" height="21.0088" stroke="#000000" stroke-width="4" stroke-miterlimit="8" fill="#ED7D31"/><rect x="84" y="237.099" width="77" height="125.052" stroke="#000000" stroke-width="4" stroke-miterlimit="8" fill="#4472C4"/><rect x="84" y="362.152" width="77" height="125.052" stroke="#000000" stroke-width="4" stroke-miterlimit="8" fill="#4472C4"/><rect x="84" y="487.204" width="77" height="125.052" stroke="#000000" stroke-width="4" stroke-miterlimit="8" fill="#4472C4"/><rect x="84" y="612.256" width="77" height="125.052" stroke="#000000" stroke-width="4" stroke-miterlimit="8" fill="#4472C4"/><text font-family="Calibri,Calibri_MSFontService,sans-serif" font-weight="400" font-size="26" transform="matrix(1 0 0 1.00042 777.044 68)">One</text><text font-family="Calibri,Calibri_MSFontService,sans-serif" font-weight="400" font-size="26" transform="matrix(1 0 0 1.00042 828.551 68)">sample</text><text font-family="Calibri,Calibri_MSFontService,sans-serif" font-weight="400" font-size="26" transform="matrix(1 0 0 1.00042 912.731 68)">(e</text><text font-family="Calibri,Calibri_MSFontService,sans-serif" font-weight="400" font-size="26" transform="matrix(1 0 0 1.00042 933.898 68)">.</text><text font-family="Calibri,Calibri_MSFontService,sans-serif" font-weight="400" font-size="26" transform="matrix(1 0 0 1.00042 940.851 68)">g</text><text font-family="Calibri,Calibri_MSFontService,sans-serif" font-weight="400" font-size="26" transform="matrix(1 0 0 1.00042 953.351 68)">.</text><text font-family="Calibri,Calibri_MSFontService,sans-serif" font-weight="400" font-size="26" transform="matrix(1 0 0 1.00042 960.018 68)">,</text><text font-family="Calibri,Calibri_MSFontService,sans-serif" font-weight="400" font-size="26" transform="matrix(1 0 0 1.00042 973.698 68)">P</text><text font-family="Calibri,Calibri_MSFontService,sans-serif" font-weight="400" font-size="26" transform="matrix(1 0 0 1.00042 987.365 68)">002</text><text font-family="Calibri,Calibri_MSFontService,sans-serif" font-weight="400" font-size="26" transform="matrix(1 0 0 1.00042 1027.36 68)">)</text><text font-family="Calibri,Calibri_MSFontService,sans-serif" font-weight="400" font-size="26" transform="matrix(1 0 0 1.00042 1042.38 68)">is</text><text font-family="Calibri,Calibri_MSFontService,sans-serif" font-weight="400" font-size="26" transform="matrix(1 0 0 1.00042 777.044 100)">left</text><text font-family="Calibri,Calibri_MSFontService,sans-serif" font-weight="400" font-size="26" transform="matrix(1 0 0 1.00042 818.811 100)">out</text><text font-family="Calibri,Calibri_MSFontService,sans-serif" font-weight="400" font-size="26" transform="matrix(1 0 0 1.00042 855.478 100)">.</text><rect x="210" y="112.047" width="77" height="125.052" stroke="#000000" stroke-width="4" stroke-miterlimit="8" fill="#4472C4"/><rect x="210" y="237.099" width="77" height="125.052" stroke="#000000" stroke-width="4" stroke-miterlimit="8" fill="#FFC000"/><rect x="210" y="362.152" width="77" height="125.052" stroke="#000000" stroke-width="4" stroke-miterlimit="8" fill="#4472C4"/><rect x="210" y="487.204" width="77" height="125.052" stroke="#000000" stroke-width="4" stroke-miterlimit="8" fill="#4472C4"/><rect x="210" y="612.256" width="77" height="125.052" stroke="#000000" stroke-width="4" stroke-miterlimit="8" fill="#4472C4"/><rect x="335" y="112.047" width="77" height="125.052" stroke="#000000" stroke-width="4" stroke-miterlimit="8" fill="#4472C4"/><rect x="335" y="237.099" width="77" height="125.052" stroke="#000000" stroke-width="4" stroke-miterlimit="8" fill="#4472C4"/><rect x="335" y="362.152" width="77" height="125.052" stroke="#000000" stroke-width="4" stroke-miterlimit="8" fill="#FFC000"/><rect x="335" y="487.204" width="77" height="125.052" stroke="#000000" stroke-width="4" stroke-miterlimit="8" fill="#4472C4"/><rect x="335" y="612.256" width="77" height="125.052" stroke="#000000" stroke-width="4" stroke-miterlimit="8" fill="#4472C4"/><rect x="461" y="112.047" width="77" height="125.052" stroke="#000000" stroke-width="4" stroke-miterlimit="8" fill="#4472C4"/><rect x="461" y="237.099" width="77" height="125.052" stroke="#000000" stroke-width="4" stroke-miterlimit="8" fill="#4472C4"/><rect x="461" y="362.152" width="77" height="125.052" stroke="#000000" stroke-width="4" stroke-miterlimit="8" fill="#4472C4"/><rect x="461" y="487.204" width="77" height="125.052" stroke="#000000" stroke-width="4" stroke-miterlimit="8" fill="#FFC000"/><rect x="461" y="612.256" width="77" height="125.052" stroke="#000000" stroke-width="4" stroke-miterlimit="8" fill="#4472C4"/><rect x="586" y="112.047" width="77" height="125.052" stroke="#000000" stroke-width="4" stroke-miterlimit="8" fill="#4472C4"/><rect x="586" y="237.099" width="77" height="125.052" stroke="#000000" stroke-width="4" stroke-miterlimit="8" fill="#4472C4"/><rect x="586" y="362.152" width="77" height="125.052" stroke="#000000" stroke-width="4" stroke-miterlimit="8" fill="#4472C4"/><rect x="586" y="487.204" width="77" height="125.052" stroke="#000000" stroke-width="4" stroke-miterlimit="8" fill="#4472C4"/><rect x="586" y="612.256" width="77" height="125.052" stroke="#000000" stroke-width="4" stroke-miterlimit="8" fill="#FFC000"/><text font-family="Calibri,Calibri_MSFontService,sans-serif" font-weight="400" font-size="26" transform="matrix(1 0 0 1.00042 777.323 356)">Five</text><text font-family="Calibri,Calibri_MSFontService,sans-serif" font-weight="400" font-size="26" transform="matrix(1 0 0 1.00042 820.396 356)">-</text><text font-family="Calibri,Calibri_MSFontService,sans-serif" font-weight="400" font-size="26" transform="matrix(1 0 0 1.00042 828.563 356)">fold</text><text font-family="Calibri,Calibri_MSFontService,sans-serif" font-weight="400" font-size="26" transform="matrix(1 0 0 1.00042 884.529 356)">cross</text><text font-family="Calibri,Calibri_MSFontService,sans-serif" font-weight="400" font-size="26" transform="matrix(1 0 0 1.00042 953.789 356)">validation</text><text font-family="Calibri,Calibri_MSFontService,sans-serif" font-weight="400" font-size="26" transform="matrix(1 0 0 1.00042 777.323 388)">is</text><text font-family="Calibri,Calibri_MSFontService,sans-serif" font-weight="400" font-size="26" transform="matrix(1 0 0 1.00042 807.87 388)">run</text><text font-family="Calibri,Calibri_MSFontService,sans-serif" font-weight="400" font-size="26" transform="matrix(1 0 0 1.00042 858.916 388)">on</text><text font-family="Calibri,Calibri_MSFontService,sans-serif" font-weight="400" font-size="26" transform="matrix(1 0 0 1.00042 900.963 388)">the</text><text font-family="Calibri,Calibri_MSFontService,sans-serif" font-weight="400" font-size="26" transform="matrix(1 0 0 1.00042 951.003 388)">remaining</text><text font-family="Calibri,Calibri_MSFontService,sans-serif" font-weight="400" font-size="26" transform="matrix(1 0 0 1.00042 777.323 419)">samples</text><text font-family="Calibri,Calibri_MSFontService,sans-serif" font-weight="400" font-size="26" transform="matrix(1 0 0 1.00042 884.576 419)">to</text><text font-family="Calibri,Calibri_MSFontService,sans-serif" font-weight="400" font-size="26" transform="matrix(1 0 0 1.00042 926.903 419)">choose</text><text font-family="Calibri,Calibri_MSFontService,sans-serif" font-weight="400" font-size="26" transform="matrix(1 0 0 1.00042 1023.16 419)">the</text><text font-family="Calibri,Calibri_MSFontService,sans-serif" font-weight="400" font-size="26" transform="matrix(1 0 0 1.00042 777.323 451)">optimal</text><text font-family="Calibri,Calibri_MSFontService,sans-serif" font-weight="400" font-size="26" transform="matrix(1 0 0 1.00042 868.07 451)">hyperparameters</text><text font-family="Calibri,Calibri_MSFontService,sans-serif" font-weight="400" font-size="26" transform="matrix(1 0 0 1.00042 1052.32 451)">.</text><text font-family="Calibri,Calibri_MSFontService,sans-serif" font-weight="400" font-size="26" transform="matrix(1 0 0 1.00042 777.323 483)">A</text><text font-family="Calibri,Calibri_MSFontService,sans-serif" font-weight="400" font-size="26" transform="matrix(1 0 0 1.00042 809.529 483)">model</text><text font-family="Calibri,Calibri_MSFontService,sans-serif" font-weight="400" font-size="26" transform="matrix(1 0 0 1.00042 894.57 483)">is</text><text font-family="Calibri,Calibri_MSFontService,sans-serif" font-weight="400" font-size="26" transform="matrix(1 0 0 1.00042 927.776 483)">then</text><text font-family="Calibri,Calibri_MSFontService,sans-serif" font-weight="400" font-size="26" transform="matrix(1 0 0 1.00042 994.316 483)">fitted,</text><text font-family="Calibri,Calibri_MSFontService,sans-serif" font-weight="400" font-size="26" transform="matrix(1 0 0 1.00042 777.323 514)">based</text><text font-family="Calibri,Calibri_MSFontService,sans-serif" font-weight="400" font-size="26" transform="matrix(1 0 0 1.00042 906.49 514)">on</text><text font-family="Calibri,Calibri_MSFontService,sans-serif" font-weight="400" font-size="26" transform="matrix(1 0 0 1.00042 999.656 514)">these</text><text font-family="Calibri,Calibri_MSFontService,sans-serif" font-weight="400" font-size="26" transform="matrix(1 0 0 1.00042 777.323 546)">hyperparameters</text><text font-family="Calibri,Calibri_MSFontService,sans-serif" font-weight="400" font-size="26" transform="matrix(1 0 0 1.00042 961.576 546)">.</text><path d="M698 112.047C713.188 112.047 725.5 114.1 725.5 116.632L725.5 420.093C725.5 422.625 737.813 424.678 753.001 424.678 737.813 424.678 725.5 426.731 725.5 429.263L725.5 732.724C725.5 735.256 713.188 737.309 698 737.309" stroke="#000000" stroke-width="6" stroke-miterlimit="8" fill="none" fill-rule="evenodd"/><path d="M698 47.0197C713.188 47.0197 725.5 49.0352 725.5 51.5214L725.5 69.5293C725.5 72.0155 737.812 74.031 753 74.031 737.812 74.031 725.5 76.0465 725.5 78.5327L725.5 96.5406C725.5 99.0268 713.188 101.042 698 101.042" stroke="#000000" stroke-width="6" stroke-miterlimit="8" fill="none" fill-rule="evenodd"/><rect x="210" y="63.0264" width="77" height="21.0088" stroke="#000000" stroke-width="4" stroke-miterlimit="8" fill="#ED7D31"/><rect x="335" y="63.0264" width="77" height="21.0088" stroke="#000000" stroke-width="4" stroke-miterlimit="8" fill="#ED7D31"/><rect x="461" y="63.0264" width="77" height="21.0088" stroke="#000000" stroke-width="4" stroke-miterlimit="8" fill="#ED7D31"/><rect x="586" y="63.0264" width="77" height="21.0088" stroke="#000000" stroke-width="4" stroke-miterlimit="8" fill="#ED7D31"/></g></svg>